<svg xmlns="http://www.w3.org/2000/svg" width="17.155" height="21.615" viewBox="0 0 17.155 21.615">
  <path id="Path_5017" data-name="Path 5017" d="M19.868,3H18.381v.743a2.233,2.233,0,0,1-2.23,2.23H10.2a2.233,2.233,0,0,1-2.23-2.23V3H6.487A1.488,1.488,0,0,0,5,4.487V22.328a1.488,1.488,0,0,0,1.487,1.487H19.868a1.488,1.488,0,0,0,1.487-1.487V4.487A1.488,1.488,0,0,0,19.868,3ZM11.319,21.213a.372.372,0,0,1-.372.372H8.717a.372.372,0,0,1-.372-.372v-2.23a.372.372,0,0,1,.372-.372h2.23a.372.372,0,0,1,.372.372Zm0-5.2a.372.372,0,0,1-.372.372H8.717a.372.372,0,0,1-.372-.372v-2.23a.372.372,0,0,1,.372-.372h2.23a.372.372,0,0,1,.372.372Zm0-5.2a.372.372,0,0,1-.372.372H8.717a.372.372,0,0,1-.372-.372V8.575A.372.372,0,0,1,8.717,8.2h2.23a.372.372,0,0,1,.372.372Zm6.319,10.779h-4.46a.372.372,0,1,1,0-.743h4.46a.372.372,0,1,1,0,.743Zm0-2.23h-4.46a.372.372,0,1,1,0-.743h4.46a.372.372,0,1,1,0,.743Zm0-2.974h-4.46a.372.372,0,1,1,0-.743h4.46a.372.372,0,1,1,0,.743Zm0-2.23h-4.46a.372.372,0,1,1,0-.743h4.46a.372.372,0,1,1,0,.743Zm0-2.974h-4.46a.372.372,0,1,1,0-.743h4.46a.372.372,0,1,1,0,.743Zm0-2.23h-4.46a.372.372,0,1,1,0-.743h4.46a.372.372,0,1,1,0,.743Z" transform="translate(-4.6 -2.6)" fill="#ffca3a" stroke="#111" stroke-width="0.8"/>
</svg>
