<svg id="Component_108_1" data-name="Component 108 – 1" xmlns="http://www.w3.org/2000/svg" width="23.752" height="21" viewBox="0 0 23.752 21">
  <path id="Path_2693" data-name="Path 2693" d="M11.076,17.158H8.865A6.363,6.363,0,0,0,2.51,23.513v1.658A.828.828,0,0,0,3.339,26H16.6a.828.828,0,0,0,.829-.829V23.513A6.363,6.363,0,0,0,11.076,17.158Zm4.7,7.184H4.168v-.829a4.7,4.7,0,0,1,4.7-4.7h2.211a4.7,4.7,0,0,1,4.7,4.7Zm-5.8-7.737a5.8,5.8,0,1,0-5.8-5.8A5.809,5.809,0,0,0,9.971,16.605Zm0-9.947A4.145,4.145,0,1,1,5.826,10.8,4.146,4.146,0,0,1,9.971,6.658Zm16.242,8.826a.033.033,0,0,0-.006-.022v-.006a.809.809,0,0,0-.16-.243.121.121,0,0,1-.017-.028l-2.211-2.211a.828.828,0,1,0-1.172,1.172l.79.8H18.254a.829.829,0,0,0,0,1.658h5.184l-.8.8a.824.824,0,0,0,0,1.172.827.827,0,0,0,1.172,0l2.211-2.211a.9.9,0,0,0,.166-.243.486.486,0,0,0,.028-.083.837.837,0,0,0,.039-.2c0-.028.006-.055.006-.083A.729.729,0,0,0,26.212,15.483Z" transform="translate(-2.51 -5)" fill="#999"/>
</svg>
