<svg xmlns="http://www.w3.org/2000/svg" width="109.072" height="109.543" viewBox="0 0 109.072 109.543">
  <g id="Layer_2" data-name="Layer 2" transform="translate(0.5 0.539)">
    <rect id="Rectangle_3498" data-name="Rectangle 3498" width="16.214" height="26.427" transform="translate(45.929 82.077)" fill="#fff" stroke="#111" stroke-width="1"/>
    <path id="Path_5034" data-name="Path 5034" d="M88.457,14.889,56.036,1.92,23.614,14.889V34.774H2v75.65H39.825V78H72.246v32.421h37.825V34.774H88.457ZM29.018,88.81H18.211V78H29.018Zm0-21.614H18.211V56.388H29.018Zm21.614,0H39.825V56.388H50.632Zm0-43.229H61.439V45.581H50.632ZM72.246,67.2H61.439V56.388H72.246ZM93.861,88.81H83.054V78H93.861Zm0-32.421V67.2H83.054V56.388Z" transform="translate(-2 -1.92)" fill="#fff" stroke="#111" stroke-width="1"/>
  </g>
</svg>
