<svg id="Component_180_19" data-name="Component 180 – 19" xmlns="http://www.w3.org/2000/svg" width="22.475" height="22.475" viewBox="0 0 22.475 22.475">
  <path id="Path_5038" data-name="Path 5038" d="M13.907,8.861a2.807,2.807,0,0,0-3.421,2.014.562.562,0,1,0,1.089.281,1.685,1.685,0,1,1,2.165,2.018,1.693,1.693,0,0,0-1.1,1.631v.706a.561.561,0,0,0,.562.561h0a.562.562,0,0,0,.561-.562V14.8a.581.581,0,0,1,.341-.566,2.807,2.807,0,0,0-.194-5.377ZM13.2,17.055a.7.7,0,1,0,.7.7A.7.7,0,0,0,13.2,17.055ZM13.237,2A11.237,11.237,0,1,0,24.475,13.237,11.237,11.237,0,0,0,13.237,2Zm0,21.351A10.114,10.114,0,1,1,23.351,13.237,10.114,10.114,0,0,1,13.237,23.351Z" transform="translate(-2 -2)" fill="#222"/>
</svg>
