<svg xmlns="http://www.w3.org/2000/svg" xmlns:xlink="http://www.w3.org/1999/xlink" width="52" height="53" viewBox="0 0 52 53">
  <defs>
    <filter id="Rectangle_3051" x="0" y="0" width="52" height="53" filterUnits="userSpaceOnUse">
      <feOffset input="SourceAlpha"/>
      <feGaussianBlur stdDeviation="2" result="blur"/>
      <feFlood flood-opacity="0.051"/>
      <feComposite operator="in" in2="blur"/>
      <feComposite in="SourceGraphic"/>
    </filter>
  </defs>
  <g id="Group_4930" data-name="Group 4930" transform="translate(-289 -955)">
    <g transform="matrix(1, 0, 0, 1, 289, 955)" filter="url(#Rectangle_3051)">
      <rect id="Rectangle_3051-2" data-name="Rectangle 3051" width="40" height="41" rx="6" transform="translate(6 6)" fill="#c9c9c9"/>
    </g>
    <g id="Layer_2" data-name="Layer 2" transform="translate(297.215 963.561)">
      <g id="icons_Q2" data-name="icons Q2" transform="translate(4.093 7.218)">
        <path id="Path_2377" data-name="Path 2377" d="M11.9,30.684,5.947,24.805A1.563,1.563,0,0,1,5.8,22.8a1.414,1.414,0,0,1,2.232-.149l4.911,4.911L30.5,10a1.488,1.488,0,0,1,2.083,2.083l-18.6,18.6a1.414,1.414,0,0,1-2.083,0Z" transform="translate(-5.501 -9.7)" fill="#111"/>
      </g>
    </g>
  </g>
</svg>
