<svg id="Component_85_1" data-name="Component 85 – 1" xmlns="http://www.w3.org/2000/svg" width="124.685" height="129.42" viewBox="0 0 124.685 129.42">
  <path id="Path_2744" data-name="Path 2744" d="M123.7,77.555a9.026,9.026,0,0,0-7.22-2.582,33.013,33.013,0,0,0-10.472-8.031V43.1h0V43.06a2.05,2.05,0,0,0-.754-1.547L88.7,28.1V22.441A2.038,2.038,0,0,0,86.661,20.4H79.206L55.117.883a2.038,2.038,0,0,0-2.568,0L28.46,20.4H21a2.038,2.038,0,0,0-2.038,2.038V28.1L2.408,41.513a2.056,2.056,0,0,0-.754,1.547c0,.014,0,.024,0,.039h0v69.258a2.038,2.038,0,0,0,2.038,2.038h60.08a32.964,32.964,0,0,0,60.182-24.311,9.07,9.07,0,0,0-.255-12.529Zm-2.882,2.882a5.011,5.011,0,0,1,0,7.077L94.325,114.006a5.129,5.129,0,0,1-7.079,0L72.471,99.231a5.006,5.006,0,0,1,7.079-7.079l9.792,9.8a2.038,2.038,0,0,0,2.884,0l21.511-21.511a5.015,5.015,0,0,1,7.079,0Zm-29.2-16.8a32.941,32.941,0,0,0-9.7,1.457l20.014-17.5V65.3A33.029,33.029,0,0,0,91.617,63.634Zm9.191-20.468L88.7,53.763V33.348ZM53.833,5.089,72.728,20.4H34.936Zm30.792,19.39V57.311L53.833,84.241,23.039,57.311V24.479ZM38.04,75.843,5.73,108.153V47.588Zm-19.076-42.5v20.4L6.857,43.166ZM9.329,110.319l31.79-31.79L52.49,88.482a2.038,2.038,0,0,0,2.682,0L61.66,82.8a32.663,32.663,0,0,0-.112,27.511Zm82.288,15.325A28.968,28.968,0,1,1,112.264,76.4a9.136,9.136,0,0,0-1.408,1.151L90.8,97.617l-8.355-8.355A9.081,9.081,0,1,0,69.608,102.1l14.774,14.774a9.083,9.083,0,0,0,12.838,0l23.189-23.191a29.317,29.317,0,0,1,.175,2.994,29,29,0,0,1-28.968,28.966Z" transform="translate(-1.654 -0.428)"/>
</svg>
