<svg id="Component_55_1" data-name="Component 55 – 1" xmlns="http://www.w3.org/2000/svg" width="181" height="193" viewBox="0 0 181 193">
  <rect id="Rectangle_3217" data-name="Rectangle 3217" width="181" height="193" fill="#fff"/>
  <g id="Group_5249" data-name="Group 5249" transform="translate(32.622 21.585)">
    <path id="Path_2662" data-name="Path 2662" d="M110.581,59.687l-6.537,6.925a4.842,4.842,0,0,0-1.211,4.6l2.179,9.249a4.842,4.842,0,0,1-3.438,5.956l-9.1,2.712a4.842,4.842,0,0,0-3.39,3.39l-2.712,9.1a4.842,4.842,0,0,1-5.956,3.438l-9.249-2.179a4.842,4.842,0,0,0-4.6,1.211l-6.925,6.537a4.842,4.842,0,0,1-6.876,0l-6.876-6.586a4.842,4.842,0,0,0-4.6-1.211l-9.249,2.179a4.842,4.842,0,0,1-5.956-3.438l-2.712-9.1a4.842,4.842,0,0,0-3.39-3.39l-9.1-2.712a4.842,4.842,0,0,1-3.39-5.908l2.179-9.249a4.842,4.842,0,0,0-1.211-4.6L1.917,59.687a4.842,4.842,0,0,1,0-6.876l6.537-6.925a4.842,4.842,0,0,0,1.211-4.6L7.485,32.037a4.842,4.842,0,0,1,3.438-5.956l9.1-2.712a4.842,4.842,0,0,0,3.39-3.39l2.712-9.1a4.842,4.842,0,0,1,5.908-3.39l9.249,2.179a4.842,4.842,0,0,0,4.6-1.211l6.925-6.537a4.842,4.842,0,0,1,6.876,0l6.925,6.537a4.842,4.842,0,0,0,4.6,1.211l9.249-2.179a4.842,4.842,0,0,1,5.956,3.438l2.712,9.1a4.842,4.842,0,0,0,3.39,3.39l9.1,2.712a4.842,4.842,0,0,1,3.39,5.908l-2.179,9.249a4.842,4.842,0,0,0,1.211,4.6l6.537,6.925a4.842,4.842,0,0,1,0,6.876Z" transform="translate(1.829 1.829)" fill="#eeb300"/>
    <path id="Path_2663" data-name="Path 2663" d="M35.814,96.154,33.1,87.05a4.842,4.842,0,0,0-3.39-3.39l-9.1-2.712a4.842,4.842,0,0,1-3.438-5.908l2.179-9.249a4.842,4.842,0,0,0-1.211-4.6L11.6,54.267a4.842,4.842,0,0,1,0-6.876l6.537-6.925a4.842,4.842,0,0,0,1.211-4.6L17.17,26.617a4.842,4.842,0,0,1,3.438-5.956l9.1-2.712a4.842,4.842,0,0,0,3.39-3.39l2.712-9.1a4.842,4.842,0,0,1,1.453-2.228l-5.23-1.162A4.842,4.842,0,0,0,26.08,5.5l-2.663,9.1A4.842,4.842,0,0,1,20.027,18l-9.1,2.712a4.842,4.842,0,0,0-3.438,5.908l2.179,9.249a4.842,4.842,0,0,1-1.211,4.6L1.917,47.391a4.842,4.842,0,0,0,0,6.876l6.537,6.925a4.842,4.842,0,0,1,1.211,4.6L7.485,75.041A4.842,4.842,0,0,0,10.924,81l9.1,2.712a4.842,4.842,0,0,1,3.39,3.39l2.712,9.1a4.842,4.842,0,0,0,5.908,3.39l5.23-1.259a4.843,4.843,0,0,1-1.453-2.179Z" transform="translate(1.829 7.249)" fill="#fff"/>
    <circle id="Ellipse_638" data-name="Ellipse 638" cx="36.323" cy="36.323" r="36.323" transform="translate(21.938 21.933)" fill="#fdd331"/>
    <path id="Path_2664" data-name="Path 2664" d="M14.408,40.838A36.318,36.318,0,0,1,45.884,4.859a36.318,36.318,0,1,0,0,71.911A36.318,36.318,0,0,1,14.408,40.838Z" transform="translate(17.037 17.239)" fill="#fff"/>
    <path id="Path_2665" data-name="Path 2665" d="M114.16,53l-6.537-6.925a2.566,2.566,0,0,1-.63-2.518l2.179-9.249a7.409,7.409,0,0,0-5.085-8.668l-9.1-2.712a2.566,2.566,0,0,1-1.743-1.743l-2.712-9.1A7.409,7.409,0,0,0,81.716,7l-9.1,2.179a2.615,2.615,0,0,1-2.373-.63l-7.07-6.537A7.457,7.457,0,0,0,53,2.009L46.075,8.546a2.615,2.615,0,0,1-2.518.63l-9.1-2.228a7.409,7.409,0,0,0-8.813,5.133l-2.712,9.1a2.567,2.567,0,0,1-1.743,1.743l-9.1,2.712a7.457,7.457,0,0,0-5.133,8.813l2.228,9.1a2.567,2.567,0,0,1-.63,2.373L2.009,53a7.457,7.457,0,0,0,0,10.169l6.537,6.925a2.567,2.567,0,0,1,.63,2.518L7,81.861a7.409,7.409,0,0,0,5.085,8.668l9.1,2.712a2.567,2.567,0,0,1,1.743,1.743l2.712,9.1a7.409,7.409,0,0,0,8.813,5.085l9.1-2.179a2.566,2.566,0,0,1,2.373.63l6.925,6.537a7.457,7.457,0,0,0,10.169,0l6.925-6.537a2.566,2.566,0,0,1,2.663-.63l9.249,2.179a7.457,7.457,0,0,0,8.668-5.085l2.712-9.1a2.567,2.567,0,0,1,1.743-1.743l9.1-2.712a7.457,7.457,0,0,0,5.085-8.813l-2.179-9.1a2.566,2.566,0,0,1,.63-2.373l6.537-6.925h0A7.457,7.457,0,0,0,114.16,53Zm-3.535,6.876L104.088,66.8a7.409,7.409,0,0,0-1.84,6.828l2.179,9.249a2.615,2.615,0,0,1-1.792,3.1l-9.1,2.712a7.409,7.409,0,0,0-4.842,4.842l-2.712,9.1a2.615,2.615,0,0,1-3.051,1.792l-9.249-2.179a7.409,7.409,0,0,0-6.828,1.84l-6.925,6.537a2.615,2.615,0,0,1-3.535,0l-6.925-6.537a7.409,7.409,0,0,0-6.828-1.84l-9.249,2.179a2.566,2.566,0,0,1-3.1-1.792l-2.712-9.1a7.409,7.409,0,0,0-4.842-4.842l-9.1-2.712a2.567,2.567,0,0,1-1.792-3.051l2.179-9.249a7.409,7.409,0,0,0-1.84-6.828L5.544,59.876a2.615,2.615,0,0,1,0-3.535l6.537-6.925a7.409,7.409,0,0,0,1.792-6.828l-2.179-9.249a2.615,2.615,0,0,1,1.792-3.1l9.1-2.712a7.409,7.409,0,0,0,4.842-4.842l2.712-9.1a2.567,2.567,0,0,1,3.051-1.792l9.249,2.179a7.409,7.409,0,0,0,6.828-1.84L56.2,5.592a2.615,2.615,0,0,1,3.535,0l6.925,6.537a7.409,7.409,0,0,0,6.828,1.84l9.249-2.179a2.615,2.615,0,0,1,3.1,1.792l2.712,9.1a7.409,7.409,0,0,0,4.842,4.842l9.1,2.712a2.567,2.567,0,0,1,1.792,3.051l-1.985,9.3a7.409,7.409,0,0,0,1.84,6.828l6.537,6.925a2.615,2.615,0,0,1-.048,3.535ZM58.084,19.345a38.74,38.74,0,1,0,38.74,38.74A38.74,38.74,0,0,0,58.084,19.345Zm0,72.637a33.9,33.9,0,1,1,33.9-33.9,33.9,33.9,0,0,1-33.9,33.9Z" transform="translate(-0.007 -0.007)"/>
  </g>
  <text id="Sun_badges" data-name="Sun badges" transform="translate(90.154 164.415)" fill="#111" font-size="22" font-family="GoogleSans-Regular, Google Sans"><tspan x="-57.838" y="0">Sun badges</tspan></text>
</svg>
