<svg xmlns="http://www.w3.org/2000/svg" xmlns:xlink="http://www.w3.org/1999/xlink" width="31" height="31" viewBox="0 0 31 31">
  <defs>
    <filter id="Rectangle_3051" x="0" y="0" width="31" height="31" filterUnits="userSpaceOnUse">
      <feOffset input="SourceAlpha"/>
      <feGaussianBlur stdDeviation="2" result="blur"/>
      <feFlood flood-opacity="0.051"/>
      <feComposite operator="in" in2="blur"/>
      <feComposite in="SourceGraphic"/>
    </filter>
  </defs>
  <g id="Component_98_1" data-name="Component 98 – 1" transform="translate(6 6)">
    <g transform="matrix(1, 0, 0, 1, -6, -6)" filter="url(#Rectangle_3051)">
      <rect id="Rectangle_3051-2" data-name="Rectangle 3051" width="19" height="19" rx="4" transform="translate(6 6)" fill="#00aab3"/>
    </g>
    <g id="Layer_2" data-name="Layer 2" transform="translate(2.992 2.992)">
      <g id="icons_Q2" data-name="icons Q2" transform="translate(0 1)">
        <path id="Path_2377" data-name="Path 2377" d="M8.464,19.416,5.707,16.694a.724.724,0,0,1-.069-.93.655.655,0,0,1,1.034-.069l2.274,2.274,8.131-8.131a.689.689,0,0,1,.965.965L9.428,19.416a.655.655,0,0,1-.965,0Z" transform="translate(-5.501 -9.7)" fill="#111"/>
      </g>
    </g>
  </g>
</svg>
