<svg xmlns="http://www.w3.org/2000/svg" xmlns:xlink="http://www.w3.org/1999/xlink" width="45.787" height="45.787" viewBox="0 0 45.787 45.787">
  <defs>
    <filter id="Path_2590" x="0" y="0" width="45.787" height="45.787" filterUnits="userSpaceOnUse">
      <feOffset dy="3" input="SourceAlpha"/>
      <feGaussianBlur stdDeviation="3" result="blur"/>
      <feFlood flood-opacity="0.161"/>
      <feComposite operator="in" in2="blur"/>
      <feComposite in="SourceGraphic"/>
    </filter>
  </defs>
  <g id="Component_80_1" data-name="Component 80 – 1" transform="translate(6.821 3.821)">
    <path id="Path_2589" data-name="Path 2589" d="M0,0H32.144V32.144H0Z" fill="none"/>
    <g transform="matrix(1, 0, 0, 1, -6.82, -3.82)" filter="url(#Path_2590)">
      <path id="Path_2590-2" data-name="Path 2590" d="M15.393,2A13.393,13.393,0,1,0,28.787,15.393,13.4,13.4,0,0,0,15.393,2Zm-.469,16.943-3.737-3.737a.671.671,0,0,1,.469-1.152h7.487a.663.663,0,0,1,.469,1.138l-3.737,3.737a.675.675,0,0,1-.951.013Z" transform="translate(7.5 4.5)" fill="#ffca3a" stroke="#111" stroke-width="1"/>
    </g>
  </g>
</svg>
