<svg xmlns="http://www.w3.org/2000/svg" width="17.155" height="22.951" viewBox="0 0 17.155 22.951">
  <g id="Component_113_1" data-name="Component 113 – 1" transform="translate(0.4 0.25)">
    <rect id="Rectangle_3496" data-name="Rectangle 3496" width="1.487" height="1.487" transform="translate(4.089 12.638)" fill="#ffca3a"/>
    <rect id="Rectangle_3497" data-name="Rectangle 3497" width="1.487" height="1.487" transform="translate(4.089 7.434)" fill="#ffca3a"/>
    <path id="Path_5025" data-name="Path 5025" d="M0,0H1.487V1.487H0Z" transform="translate(4.089 17.842)" fill="#ffca3a"/>
    <path id="Path_5017" data-name="Path 5017" d="M19.868,3H18.381v.743a2.233,2.233,0,0,1-2.23,2.23H10.2a2.233,2.233,0,0,1-2.23-2.23V3H6.487A1.488,1.488,0,0,0,5,4.487V22.328a1.488,1.488,0,0,0,1.487,1.487H19.868a1.488,1.488,0,0,0,1.487-1.487V4.487A1.488,1.488,0,0,0,19.868,3ZM11.319,21.213a.372.372,0,0,1-.372.372H8.717a.372.372,0,0,1-.372-.372v-2.23a.372.372,0,0,1,.372-.372h2.23a.372.372,0,0,1,.372.372Zm0-5.2a.372.372,0,0,1-.372.372H8.717a.372.372,0,0,1-.372-.372v-2.23a.372.372,0,0,1,.372-.372h2.23a.372.372,0,0,1,.372.372Zm0-5.2a.372.372,0,0,1-.372.372H8.717a.372.372,0,0,1-.372-.372V8.575A.372.372,0,0,1,8.717,8.2h2.23a.372.372,0,0,1,.372.372Zm6.319,10.779h-4.46a.372.372,0,1,1,0-.743h4.46a.372.372,0,1,1,0,.743Zm0-2.23h-4.46a.372.372,0,1,1,0-.743h4.46a.372.372,0,1,1,0,.743Zm0-2.974h-4.46a.372.372,0,1,1,0-.743h4.46a.372.372,0,1,1,0,.743Zm0-2.23h-4.46a.372.372,0,1,1,0-.743h4.46a.372.372,0,1,1,0,.743Zm0-2.974h-4.46a.372.372,0,1,1,0-.743h4.46a.372.372,0,1,1,0,.743Zm0-2.23h-4.46a.372.372,0,1,1,0-.743h4.46a.372.372,0,1,1,0,.743Z" transform="translate(-5 -1.514)" fill="#ffca3a" stroke="#111" stroke-width="0.8"/>
    <path id="Path_5018" data-name="Path 5018" d="M11.487,4.717h5.947A1.488,1.488,0,0,0,18.921,3.23V2.487A1.488,1.488,0,0,0,17.434,1H11.487A1.488,1.488,0,0,0,10,2.487V3.23A1.488,1.488,0,0,0,11.487,4.717Z" transform="translate(-6.283 -1)" fill="#ffca3a" stroke="#111" stroke-width="0.5"/>
  </g>
</svg>
