<svg id="Component_86_1" data-name="Component 86 – 1" xmlns="http://www.w3.org/2000/svg" width="14.618" height="16.172" viewBox="0 0 14.618 16.172">
  <path id="Path_2743" data-name="Path 2743" d="M19.37,20.426a1.866,1.866,0,0,1-2.639,0l-4.122-4.712-4.122,4.71a1.866,1.866,0,1,1-2.639-2.639l4.289-4.9-4.29-4.9A1.866,1.866,0,1,1,8.485,5.347l4.124,4.713,4.122-4.713A1.866,1.866,0,1,1,19.37,7.986s-4.289,2.451-4.289,4.9,4.289,4.9,4.289,4.9a1.866,1.866,0,0,1,0,2.64Z" transform="translate(-5.299 -4.801)" fill="#fff"/>
</svg>
