<svg id="Component_56_1_Hover_State_" data-name="Component 56 – 1 (Hover State)" xmlns="http://www.w3.org/2000/svg" width="181" height="191" viewBox="0 0 181 191">
  <rect id="Rectangle_3218" data-name="Rectangle 3218" width="181" height="191" fill="#fff"/>
  <text id="Score_70_in_all_worksheet_paper" data-name="Score 70% in 
all worksheet paper" transform="translate(91 99)" fill="#999" font-size="18" font-family="GoogleSans-Regular, Google Sans"><tspan x="-54.63" y="0">Score 70% in </tspan><tspan x="-79.461" y="23">all worksheet paper</tspan></text>
  <path id="Path_2707" data-name="Path 2707" d="M16.469,19.145a2.322,2.322,0,0,0-1.559,4.068v2.166a1.559,1.559,0,0,0,3.117,0V23.213a2.322,2.322,0,0,0-1.559-4.068Zm7.793-6.235V9.793a7.793,7.793,0,1,0-15.586,0V12.91A4.676,4.676,0,0,0,4,17.586V28.5a4.676,4.676,0,0,0,4.676,4.676H24.262A4.676,4.676,0,0,0,28.938,28.5V17.586A4.676,4.676,0,0,0,24.262,12.91ZM11.793,9.793a4.676,4.676,0,0,1,9.352,0V12.91H11.793ZM25.821,28.5a1.559,1.559,0,0,1-1.559,1.559H8.676A1.559,1.559,0,0,1,7.117,28.5V17.586a1.559,1.559,0,0,1,1.559-1.559H24.262a1.559,1.559,0,0,1,1.559,1.559Z" transform="translate(74.531 30)"/>
</svg>
