<svg id="Component_55_1_Hover_State_" data-name="Component 55 – 1 (Hover State)" xmlns="http://www.w3.org/2000/svg" width="181" height="193" viewBox="0 0 181 193">
  <rect id="Rectangle_3217" data-name="Rectangle 3217" width="181" height="193" fill="#fff"/>
  <text id="Score_40_in_all_subjects_self_test" data-name="Score 40% in  
all subjects self test" transform="translate(91 99)" fill="#999" font-size="18" font-family="GoogleSans-Regular, Google Sans"><tspan x="-57.375" y="0" xml:space="preserve">Score 40% in  </tspan><tspan x="-79.524" y="23">all subjects self test</tspan></text>
  <path id="Path_2706" data-name="Path 2706" d="M15.927,18.4a2.221,2.221,0,0,0-1.491,3.891v2.072a1.491,1.491,0,1,0,2.982,0V22.292A2.221,2.221,0,0,0,15.927,18.4Zm7.455-5.964V9.455a7.455,7.455,0,0,0-14.909,0v2.982A4.473,4.473,0,0,0,4,16.909V27.346a4.473,4.473,0,0,0,4.473,4.473H23.382a4.473,4.473,0,0,0,4.473-4.473V16.909A4.473,4.473,0,0,0,23.382,12.437ZM11.455,9.455a4.473,4.473,0,0,1,8.946,0v2.982H11.455ZM24.873,27.346a1.491,1.491,0,0,1-1.491,1.491H8.473a1.491,1.491,0,0,1-1.491-1.491V16.909a1.491,1.491,0,0,1,1.491-1.491H23.382a1.491,1.491,0,0,1,1.491,1.491Z" transform="translate(71 35)" fill="#317b85"/>
</svg>
