<svg xmlns="http://www.w3.org/2000/svg" width="326" height="47.43" viewBox="0 0 326 47.43">
  <g id="Group_4894" data-name="Group 4894" transform="translate(-85 -122)">
    <g id="Group_4979" data-name="Group 4979" transform="translate(85 123)">
      <g id="Path_2588" data-name="Path 2588" transform="translate(0 -0.57)" fill="#fff">
        <path d="M 306 46.5 L 20 46.5 C 17.3672924041748 46.5 14.81358337402344 45.98450088500977 12.40987491607666 44.96779251098633 C 10.08787536621094 43.98566818237305 8.002416610717773 42.57958221435547 6.211416721343994 40.78858184814453 C 4.420416831970215 38.99758148193359 3.014333248138428 36.91212463378906 2.032208442687988 34.59012603759766 C 1.015499949455261 32.18641662597656 0.5 29.6327075958252 0.5 27 L 0.5 20 C 0.5 17.3672924041748 1.015499949455261 14.81358337402344 2.032208442687988 12.40987491607666 C 3.014333248138428 10.08787536621094 4.420416831970215 8.002416610717773 6.211416721343994 6.211416721343994 C 8.002416610717773 4.420416831970215 10.08787536621094 3.014333248138428 12.40987491607666 2.032208442687988 C 14.81358337402344 1.015499949455261 17.3672924041748 0.5 20 0.5 L 306 0.5 C 308.6327209472656 0.5 311.1864318847656 1.015499949455261 313.5901184082031 2.032208442687988 C 315.9121398925781 3.014333248138428 317.9975891113281 4.420416831970215 319.78857421875 6.211416721343994 C 321.57958984375 8.002416610717773 322.9856567382812 10.08787536621094 323.9678039550781 12.40987491607666 C 324.9844970703125 14.81358337402344 325.5 17.3672924041748 325.5 20 L 325.5 27 C 325.5 29.6327075958252 324.9844970703125 32.18641662597656 323.9678039550781 34.59012603759766 C 322.9856567382812 36.91212463378906 321.57958984375 38.99758148193359 319.78857421875 40.78858184814453 C 317.9975891113281 42.57958221435547 315.9121398925781 43.98566818237305 313.5901184082031 44.96779251098633 C 311.1864318847656 45.98450088500977 308.6327209472656 46.5 306 46.5 Z" stroke="none"/>
        <path d="M 20 1 C 17.4345703125 1 14.9464111328125 1.502208709716797 12.6046142578125 2.492710113525391 C 10.34225463867188 3.449623107910156 8.310211181640625 4.819709777832031 6.564971923828125 6.564956665039062 C 4.8197021484375 8.310207366943359 3.449615478515625 10.34225082397461 2.492706298828125 12.6046257019043 C 1.502197265625 14.94641494750977 1 17.43458366394043 1 20 L 1 27 C 1 29.56541633605957 1.502197265625 32.05358123779297 2.492706298828125 34.3953742980957 C 3.449615478515625 36.65774917602539 4.8197021484375 38.68979263305664 6.564971923828125 40.43504333496094 C 8.310211181640625 42.18029022216797 10.34225463867188 43.55037689208984 12.6046142578125 44.50728988647461 C 14.9464111328125 45.4977912902832 17.4345703125 46 20 46 L 306 46 C 308.5654296875 46 311.0535888671875 45.4977912902832 313.3953247070312 44.50728988647461 C 315.65771484375 43.55037689208984 317.6897583007812 42.18029022216797 319.4349975585938 40.43504333496094 C 321.1802978515625 38.68979263305664 322.5503845214844 36.65774917602539 323.5072937011719 34.3953742980957 C 324.497802734375 32.05358123779297 325 29.56541633605957 325 27 L 325 20 C 325 17.43458366394043 324.497802734375 14.94641494750977 323.5072937011719 12.6046257019043 C 322.5503845214844 10.34225082397461 321.1802978515625 8.310207366943359 319.4349975585938 6.564956665039062 C 317.6897583007812 4.819709777832031 315.65771484375 3.449623107910156 313.3953247070312 2.492710113525391 C 311.0535888671875 1.502208709716797 308.5654296875 1 306 1 L 20 1 M 20 0 L 306 0 C 317.045654296875 0 326 8.954292297363281 326 20 L 326 27 C 326 38.04570770263672 317.045654296875 47 306 47 L 20 47 C 8.95428466796875 47 0 38.04570770263672 0 27 L 0 20 C 0 8.954292297363281 8.95428466796875 0 20 0 Z" stroke="none" fill="#00aab3"/>
      </g>
      <path id="Rectangle_3070" data-name="Rectangle 3070" d="M20,0H163a0,0,0,0,1,0,0V47a0,0,0,0,1,0,0H20A20,20,0,0,1,0,27V20A20,20,0,0,1,20,0Z" transform="translate(0 -1)" fill="#fff"/>
      <path id="Rectangle_3071" data-name="Rectangle 3071" d="M0,0H143a20,20,0,0,1,20,20v7a20,20,0,0,1-20,20H0a0,0,0,0,1,0,0V0A0,0,0,0,1,0,0Z" transform="translate(163 -0.57)" fill="#3ab9c1"/>
      <g id="Group_4885" data-name="Group 4885" transform="translate(207 13)">
        <text id="Annually" transform="translate(0 17)" fill="#111" font-size="18" font-family="GoogleSans-Regular, Google Sans"><tspan x="0" y="0">Annually</tspan></text>
      </g>
      <g id="Group_4882" data-name="Group 4882" transform="translate(46 13)">
        <text id="Monthly" transform="translate(0 17)" fill="#111" font-size="18" font-family="GoogleSans-Regular, Google Sans"><tspan x="0" y="0">Monthly</tspan></text>
      </g>
    </g>
  </g>
</svg>
