<svg id="icons_Q2" data-name="icons Q2" xmlns="http://www.w3.org/2000/svg" width="24" height="24" viewBox="0 0 24 24">
  <path id="Path_2371" data-name="Path 2371" d="M17.2,18v6.72l1.56-1.56a1.2,1.2,0,0,1,1.86.12,1.32,1.32,0,0,1-.24,1.62l-3.54,3.54a1.14,1.14,0,0,1-1.68,0L11.62,24.9a1.32,1.32,0,0,1-.24-1.62,1.2,1.2,0,0,1,1.86-.12l1.56,1.56V18H4V31.2a2.4,2.4,0,0,0,2.4,2.4H25.6A2.4,2.4,0,0,0,28,31.2V18Z" transform="translate(-4 -9.6)" fill="#111"/>
  <path id="Path_2372" data-name="Path 2372" d="M27.979,10H4.1a2.16,2.16,0,0,1,.42-1.02l3-4.02A2.34,2.34,0,0,1,9.44,4h13.2a2.34,2.34,0,0,1,1.92.96l3,4.02A2.16,2.16,0,0,1,27.979,10Z" transform="translate(-4.04 -4)" fill="#111"/>
</svg>
