<svg id="OBJECTS" xmlns="http://www.w3.org/2000/svg" width="644.181" height="644.181" viewBox="0 0 644.181 644.181">
  <rect id="Rectangle_3081" data-name="Rectangle 3081" width="601.321" height="138.726" transform="translate(21.43 403.394)" fill="#d8d8d8"/>
  <g id="Group_4995" data-name="Group 4995" transform="translate(0 0)" opacity="0.5">
    <path id="Path_2549" data-name="Path 2549" d="M220.076.132c125.711,4.239,231.057,109.585,235.3,235.3S361.139,459.612,235.428,455.373,4.371,345.788.132,220.077,94.365-4.107,220.076.132Z" transform="translate(0 322.09) rotate(-45)" fill="#ffca3a" opacity="0.595"/>
    <g id="Group_4994" data-name="Group 4994" transform="translate(54.702 77.643)">
      <g id="Group_4993" data-name="Group 4993" transform="translate(0 0)">
        <path id="Path_2385" data-name="Path 2385" d="M292.97,532.3a4.723,4.723,0,0,1,4.929-4.466h0a4.676,4.676,0,0,1,4.843,4.507h0a4.693,4.693,0,0,1-4.91,4.466h-.077A4.7,4.7,0,0,1,292.97,532.3Zm-16.989,3.59a4.612,4.612,0,0,1-4.446-4.858h0a4.781,4.781,0,0,1,5.292-4.082h0a4.612,4.612,0,0,1,4.445,4.859h0a4.768,4.768,0,0,1-4.96,4.106h0C276.2,535.913,276.1,535.893,275.981,535.89Zm38.48-3.919a4.62,4.62,0,0,1,4.506-4.815h0a4.776,4.776,0,0,1,5.244,4.138h0a4.654,4.654,0,0,1-4.506,4.815h0c-.156,0-.312.011-.469.008h0A4.736,4.736,0,0,1,314.461,531.971Zm-60.181,1.392h0a4.548,4.548,0,0,1-4.008-5.173h0a4.866,4.866,0,0,1,5.634-3.681h0a4.537,4.537,0,0,1,4.008,5.173h0a4.8,4.8,0,0,1-4.911,3.73h0A5,5,0,0,1,254.281,533.363Zm81.57-3.32a4.559,4.559,0,0,1,4.045-5.147h0a4.876,4.876,0,0,1,5.6,3.73h0a4.573,4.573,0,0,1-4.063,5.147h0v-.017h0a4.837,4.837,0,0,1-.861.055h0A4.764,4.764,0,0,1,335.85,530.043Zm-102.978-.855a4.461,4.461,0,0,1-3.534-5.452h0a4.92,4.92,0,0,1,5.938-3.225h0a4.46,4.46,0,0,1,3.532,5.452h0a4.852,4.852,0,0,1-4.826,3.373h0A4.69,4.69,0,0,1,232.872,529.188Zm124.112-2.676a4.48,4.48,0,0,1,3.581-5.423h.02a4.9,4.9,0,0,1,5.887,3.287h0a4.47,4.47,0,0,1-3.581,5.426h0a4.986,4.986,0,0,1-1.252.12h0A4.838,4.838,0,0,1,356.983,526.512Zm-145.094-3.069h.018a4.426,4.426,0,0,1-3.039-5.711h0a5.01,5.01,0,0,1,6.222-2.79h0a4.416,4.416,0,0,1,3.019,5.711h0a4.891,4.891,0,0,1-4.721,3.034h0A5.533,5.533,0,0,1,211.889,523.443ZM377.74,521.4a4.416,4.416,0,0,1,3.079-5.686h0a5.011,5.011,0,0,1,6.192,2.845h0a4.426,4.426,0,0,1-3.079,5.668h0a5.353,5.353,0,0,1-1.668.236h0A4.863,4.863,0,0,1,377.74,521.4Zm-186.232-5.3A4.347,4.347,0,0,1,189,510.176h0a5.066,5.066,0,0,1,6.442-2.283h0a4.34,4.34,0,0,1,2.507,5.9h0a4.938,4.938,0,0,1-4.575,2.677h0A5.261,5.261,0,0,1,191.509,516.093Zm206.437-1.37a4.36,4.36,0,0,1,2.576-5.891h0a5.067,5.067,0,0,1,6.419,2.366h0a4.363,4.363,0,0,1-2.576,5.89h0a5.233,5.233,0,0,1-2.023.357h0A4.932,4.932,0,0,1,397.946,514.723Zm-226.1-7.474a4.307,4.307,0,0,1-1.974-6.085h0a5.119,5.119,0,0,1,6.627-1.812h0a4.3,4.3,0,0,1,1.955,6.085h0a4.959,4.959,0,0,1-4.393,2.357h0A5.087,5.087,0,0,1,171.847,507.249Zm245.655-.7a4.31,4.31,0,0,1,2.031-6.065h0a5.107,5.107,0,0,1,6.605,1.867h0a4.318,4.318,0,0,1-2.031,6.062h0a5.1,5.1,0,0,1-2.377.531h0A4.98,4.98,0,0,1,417.5,506.55Zm-264.464-9.618h0a4.264,4.264,0,0,1-1.424-6.2h0a5.175,5.175,0,0,1,6.773-1.308h0a4.282,4.282,0,0,1,1.4,6.218h0a4.988,4.988,0,0,1-4.189,2.02h0A5.1,5.1,0,0,1,153.038,496.932Zm283.211.012a4.286,4.286,0,0,1,1.487-6.2h0a5.147,5.147,0,0,1,6.751,1.367h0A4.25,4.25,0,0,1,443,498.292h0a5.1,5.1,0,0,1-2.732.72h0A5.032,5.032,0,0,1,436.25,496.944Zm-301.03-11.674a4.24,4.24,0,0,1-.855-6.3h0a5.146,5.146,0,0,1,6.839-.785h0a4.253,4.253,0,0,1,.875,6.3h0a5.117,5.117,0,0,1-3.967,1.719h0A5.182,5.182,0,0,1,135.219,485.271Zm318.891.668a4.242,4.242,0,0,1,.921-6.282h0a5.176,5.176,0,0,1,6.843.847h0a4.261,4.261,0,0,1-.924,6.3h0a5.238,5.238,0,0,1-3.069.911h0A5.018,5.018,0,0,1,454.11,485.939ZM118.5,472.3a4.236,4.236,0,0,1-.308-6.341h0a5.2,5.2,0,0,1,6.907-.283h0a4.233,4.233,0,0,1,.288,6.341h0a5.063,5.063,0,0,1-3.688,1.457h0A5.159,5.159,0,0,1,118.5,472.3Zm352.42,1.358a4.232,4.232,0,0,1,.358-6.347h0a5.213,5.213,0,0,1,6.91.346h0a4.226,4.226,0,0,1-.375,6.327h0a5.074,5.074,0,0,1-3.368,1.159h0A5.07,5.07,0,0,1,470.923,473.659ZM102.988,458.115a4.213,4.213,0,0,1,.259-6.331h0a5.19,5.19,0,0,1,6.9.24h0a4.244,4.244,0,0,1-.26,6.348h0a5.178,5.178,0,0,1-3.427,1.19h0A5.044,5.044,0,0,1,102.988,458.115Zm383.582,2.037a4.264,4.264,0,0,1-.19-6.357h0a5.241,5.241,0,0,1,6.924-.174h0a4.263,4.263,0,0,1,.19,6.357h0a5.167,5.167,0,0,1-3.666,1.384h0A5.145,5.145,0,0,1,486.571,460.152ZM88.768,442.84a4.248,4.248,0,0,1,.826-6.3h0a5.177,5.177,0,0,1,6.864.757h0a4.254,4.254,0,0,1-.826,6.3h0a5.155,5.155,0,0,1-3.11.946h0A5.063,5.063,0,0,1,88.768,442.84Zm412.225,2.671a4.24,4.24,0,0,1-.736-6.314v.019a5.161,5.161,0,0,1,6.857-.7h0a4.228,4.228,0,0,1,.758,6.3h0a5.054,5.054,0,0,1-3.91,1.684h0A5.22,5.22,0,0,1,500.993,445.511ZM75.958,426.535v.019h0a4.274,4.274,0,0,1,1.391-6.221h0a5.168,5.168,0,0,1,6.774,1.259h0a4.272,4.272,0,0,1-1.389,6.22h0a5.17,5.17,0,0,1-2.794.737h0A4.991,4.991,0,0,1,75.958,426.535Zm438.113,3.321a4.282,4.282,0,0,1-1.307-6.235h0a5.168,5.168,0,0,1,6.792-1.2h0a4.25,4.25,0,0,1,1.307,6.218h0a5.038,5.038,0,0,1-4.151,1.986h0A5.252,5.252,0,0,1,514.071,429.856ZM64.655,409.343a4.291,4.291,0,0,1,1.935-6.083h0a5.1,5.1,0,0,1,6.626,1.776h0a4.291,4.291,0,0,1-1.935,6.083h0a5.09,5.09,0,0,1-2.436.547h0A4.916,4.916,0,0,1,64.655,409.343Zm461.067,3.917a4.306,4.306,0,0,1-1.855-6.12h0a5.113,5.113,0,0,1,6.645-1.705h0a4.3,4.3,0,0,1,1.876,6.1h-.02a4.97,4.97,0,0,1-4.352,2.287h0A5.237,5.237,0,0,1,525.722,413.26ZM54.913,391.372a4.344,4.344,0,0,1,2.459-5.93h0A5.064,5.064,0,0,1,63.83,387.7h0a4.344,4.344,0,0,1-2.459,5.931h0a5.4,5.4,0,0,1-2.1.392h0A4.921,4.921,0,0,1,54.913,391.372Zm480.937,4.454a4.325,4.325,0,0,1-2.41-5.932h0a5.071,5.071,0,0,1,6.48-2.212h0a4.339,4.339,0,0,1,2.41,5.95h0a4.95,4.95,0,0,1-4.557,2.607h0A4.855,4.855,0,0,1,535.85,395.826ZM46.809,372.714a4.4,4.4,0,0,1,3-5.722h0a4.979,4.979,0,0,1,6.213,2.738h0a4.4,4.4,0,0,1-2.982,5.722h0a5.131,5.131,0,0,1-1.726.255h0A4.886,4.886,0,0,1,46.809,372.714Zm497.577,5a4.411,4.411,0,0,1-2.939-5.745h0a5.038,5.038,0,0,1,6.257-2.7h0a4.411,4.411,0,0,1,2.939,5.745h0a4.925,4.925,0,0,1-4.7,2.963h0A5.163,5.163,0,0,1,544.386,377.717ZM40.418,353.5a4.461,4.461,0,0,1,3.485-5.481h0a4.936,4.936,0,0,1,5.968,3.2h0a4.486,4.486,0,0,1-3.5,5.48h0a4.742,4.742,0,0,1-1.332.154h0A4.817,4.817,0,0,1,40.418,353.5Zm510.82,5.522a4.439,4.439,0,0,1-3.414-5.5h0a4.931,4.931,0,0,1,5.994-3.153h0a4.458,4.458,0,0,1,3.433,5.5h0a4.861,4.861,0,0,1-4.824,3.3h0A5.5,5.5,0,0,1,551.238,359.02ZM35.756,333.863h0a4.53,4.53,0,0,1,3.969-5.2h0a4.852,4.852,0,0,1,5.645,3.659h0a4.521,4.521,0,0,1-3.966,5.184h0a5.541,5.541,0,0,1-.941.072h0A4.782,4.782,0,0,1,35.756,333.863Zm520.663,6a4.507,4.507,0,0,1-3.911-5.224h0a4.866,4.866,0,0,1,5.691-3.591h0a4.53,4.53,0,0,1,3.911,5.225h0a4.8,4.8,0,0,1-4.891,3.676h0A3.989,3.989,0,0,1,556.419,339.859ZM32.861,313.94h0a4.62,4.62,0,0,1,4.429-4.87h0a4.767,4.767,0,0,1,5.305,4.05h0a4.617,4.617,0,0,1-4.411,4.888h0c-.2.014-.371.01-.546.007h0A4.751,4.751,0,0,1,32.861,313.94ZM559.845,320.4a4.618,4.618,0,0,1-4.366-4.928h0a4.815,4.815,0,0,1,5.369-4.008h0a4.627,4.627,0,0,1,4.366,4.928h0a4.78,4.78,0,0,1-4.959,4.034h0C560.12,320.42,559.982,320.4,559.845,320.4ZM31.768,293.871a4.676,4.676,0,0,1,4.831-4.52h0a4.725,4.725,0,0,1,4.944,4.437h0a4.72,4.72,0,0,1-4.851,4.538h0l-.137,0h0A4.692,4.692,0,0,1,31.768,293.871Zm525.007,2.274a4.721,4.721,0,0,1,4.986-4.393h0a4.682,4.682,0,0,1,4.785,4.577h0a4.722,4.722,0,0,1-4.987,4.393h0A4.679,4.679,0,0,1,556.775,296.145ZM36.958,278.588a4.652,4.652,0,0,1-4.544-4.788h.021a4.746,4.746,0,0,1,5.213-4.156h0a4.636,4.636,0,0,1,4.526,4.789h0a4.745,4.745,0,0,1-4.961,4.159h0Zm519.659,2.8H556.6a4.682,4.682,0,0,1,4.7-4.667h0a4.748,4.748,0,0,1,5.085,4.3h0a4.674,4.674,0,0,1-4.7,4.667h0c-.1,0-.195.015-.293.012h0A4.7,4.7,0,0,1,556.617,281.388ZM38.944,258.956a4.555,4.555,0,0,1-4.089-5.121h0a4.831,4.831,0,0,1,5.558-3.754h0a4.542,4.542,0,0,1,4.089,5.1h0A4.782,4.782,0,0,1,39.588,259h0C39.373,259,39.158,258.977,38.944,258.956ZM554.9,262.1a4.563,4.563,0,0,1,4.237-5h0a4.827,4.827,0,0,1,5.463,3.908h0a4.613,4.613,0,0,1-4.255,5h0c-.235.012-.471.026-.7.021h0A4.726,4.726,0,0,1,554.9,262.1ZM42.664,239.516a4.487,4.487,0,0,1-3.632-5.4h0a4.954,4.954,0,0,1,5.9-3.335h0a4.5,4.5,0,0,1,3.611,5.417h0a4.826,4.826,0,0,1-4.847,3.445h0A5.067,5.067,0,0,1,42.664,239.516Zm508.794,3.474a4.513,4.513,0,0,1,3.793-5.294h0a4.893,4.893,0,0,1,5.787,3.483h0a4.529,4.529,0,0,1-3.795,5.3h0a4.68,4.68,0,0,1-1.1.1h0A4.826,4.826,0,0,1,551.458,242.99ZM48.117,220.434a4.429,4.429,0,0,1-3.137-5.66h0a5.006,5.006,0,0,1,6.181-2.862h0a4.411,4.411,0,0,1,3.119,5.659h0a4.9,4.9,0,0,1-4.742,3.087h0A5.611,5.611,0,0,1,48.117,220.434Zm498.212,3.793a4.435,4.435,0,0,1,3.311-5.572h0a4.973,4.973,0,0,1,6.07,3.022h0a4.436,4.436,0,0,1-3.311,5.573h0a5.182,5.182,0,0,1-1.49.187h0A4.845,4.845,0,0,1,546.328,224.227ZM55.26,201.812a4.373,4.373,0,0,1-2.6-5.882h0a5.071,5.071,0,0,1,6.407-2.391h0a4.365,4.365,0,0,1,2.6,5.882h0a4.918,4.918,0,0,1-4.616,2.73h0A5.293,5.293,0,0,1,55.26,201.812ZM539.526,205.9a4.384,4.384,0,0,1,2.808-5.8h0a5.019,5.019,0,0,1,6.315,2.56h0a4.386,4.386,0,0,1-2.787,5.8h0a5.247,5.247,0,0,1-1.865.3h0A4.89,4.89,0,0,1,539.526,205.9ZM64.069,183.8A4.306,4.306,0,0,1,62,177.746h0a5.084,5.084,0,0,1,6.591-1.9h0a4.309,4.309,0,0,1,2.074,6.051h0a5.005,5.005,0,0,1-4.453,2.411h0A5.3,5.3,0,0,1,64.069,183.8Zm467.059,4.352v.019a4.339,4.339,0,0,1,2.267-6.006h0a5.076,5.076,0,0,1,6.52,2.08h0a4.314,4.314,0,0,1-2.264,5.987h0a5.083,5.083,0,0,1-2.219.461h0A4.928,4.928,0,0,1,531.128,188.151ZM74.447,166.5a4.247,4.247,0,0,1-1.523-6.184h0a5.154,5.154,0,0,1,6.736-1.4h0a4.3,4.3,0,0,1,1.523,6.2h0a5.043,5.043,0,0,1-4.231,2.072h0A5.036,5.036,0,0,1,74.447,166.5Zm446.7,4.613a4.286,4.286,0,0,1,1.721-6.141h0a5.113,5.113,0,0,1,6.689,1.581h0a4.273,4.273,0,0,1-1.72,6.141h0a5.246,5.246,0,0,1-2.577.616h0A4.979,4.979,0,0,1,521.151,171.109ZM86.331,150.047a4.228,4.228,0,0,1-.975-6.265h0a5.158,5.158,0,0,1,6.843-.893h0a4.26,4.26,0,0,1,.973,6.282h0a5.058,5.058,0,0,1-4.008,1.791h0A5.116,5.116,0,0,1,86.331,150.047Zm423.358,4.818a4.267,4.267,0,0,1,1.177-6.259h0a5.184,5.184,0,0,1,6.817,1.08h0a4.246,4.246,0,0,1-1.176,6.241h0a5.193,5.193,0,0,1-2.912.825h0A5.051,5.051,0,0,1,509.689,154.865ZM99.619,134.558a4.269,4.269,0,0,1-.406-6.343h0a5.224,5.224,0,0,1,6.909-.372h0a4.242,4.242,0,0,1,.406,6.344h0a5.112,5.112,0,0,1-3.748,1.509h0A5.2,5.2,0,0,1,99.619,134.558Zm397.221,4.953a4.221,4.221,0,0,1,.61-6.307h0a5.166,5.166,0,0,1,6.868.56h0a4.24,4.24,0,0,1-.611,6.325h0a5.152,5.152,0,0,1-3.228,1.034h0A5,5,0,0,1,496.839,139.511ZM114.252,120.1a4.225,4.225,0,0,1,.162-6.332h0a5.2,5.2,0,0,1,6.918.132h0a4.244,4.244,0,0,1-.162,6.35h0a5.193,5.193,0,0,1-3.47,1.244h0A5.144,5.144,0,0,1,114.252,120.1Zm368.386,5.088h.018a4.225,4.225,0,0,1,.045-6.336h0a5.19,5.19,0,0,1,6.9.041h0a4.225,4.225,0,0,1-.043,6.335h0a5.064,5.064,0,0,1-3.529,1.3h0A5.159,5.159,0,0,1,482.638,125.188ZM130.13,106.8a4.247,4.247,0,0,1,.709-6.322h0a5.2,5.2,0,0,1,6.886.668h0a4.245,4.245,0,0,1-.729,6.3h0a5.108,5.108,0,0,1-3.168,1h0A5.062,5.062,0,0,1,130.13,106.8Zm337.106,5.16h0a4.24,4.24,0,0,1-.5-6.327h0a5.2,5.2,0,0,1,6.891-.462h0a4.238,4.238,0,0,1,.5,6.327h0a5.06,5.06,0,0,1-3.807,1.561h0A5.1,5.1,0,0,1,467.236,111.956ZM147.115,94.7a4.24,4.24,0,0,1,1.274-6.221h0a5.147,5.147,0,0,1,6.8,1.169h0a4.277,4.277,0,0,1-1.274,6.24h0a5.233,5.233,0,0,1-2.851.772h0A4.969,4.969,0,0,1,147.115,94.7Zm303.6,5.225h0a4.256,4.256,0,0,1-1.071-6.266h0a5.179,5.179,0,0,1,6.823-.983h0a4.255,4.255,0,0,1,1.071,6.267h0a5.02,5.02,0,0,1-4.048,1.843h0A5.01,5.01,0,0,1,450.715,99.922ZM165.107,83.928a4.272,4.272,0,0,1,1.838-6.1h0a5.092,5.092,0,0,1,6.648,1.669h0a4.289,4.289,0,0,1-1.82,6.122h0a5.18,5.18,0,0,1-2.514.58h0A4.954,4.954,0,0,1,165.107,83.928Zm268.06,5.236a4.26,4.26,0,0,1-1.62-6.15h0a5.115,5.115,0,0,1,6.719-1.488h0v-.018h0a4.3,4.3,0,0,1,1.62,6.168h0a4.971,4.971,0,0,1-4.27,2.145h0A5.24,5.24,0,0,1,433.167,89.163ZM184.006,74.558a4.34,4.34,0,0,1,2.361-5.968h0a5.084,5.084,0,0,1,6.5,2.17h0a4.34,4.34,0,0,1-2.362,5.967h0a5.394,5.394,0,0,1-2.159.426h0A4.954,4.954,0,0,1,184.006,74.558Zm230.723,5.211h0a4.3,4.3,0,0,1-2.171-6.017h0a5.088,5.088,0,0,1,6.554-1.995h0a4.312,4.312,0,0,1,2.171,6.019h0a4.958,4.958,0,0,1-4.473,2.481h0A5.016,5.016,0,0,1,414.729,79.769ZM203.673,66.62a4.393,4.393,0,0,1,2.885-5.761h0a5.017,5.017,0,0,1,6.273,2.667h0a4.377,4.377,0,0,1-2.885,5.761h0a5.6,5.6,0,0,1-1.784.271h0A4.88,4.88,0,0,1,203.673,66.62ZM395.5,71.795a4.367,4.367,0,0,1-2.7-5.831h0a5.034,5.034,0,0,1,6.352-2.482h0a4.362,4.362,0,0,1,2.7,5.83h0a4.887,4.887,0,0,1-4.618,2.8h0A5.231,5.231,0,0,1,395.5,71.795ZM223.99,60.2a4.442,4.442,0,0,1,3.409-5.518h0a4.942,4.942,0,0,1,6.009,3.112h0A4.45,4.45,0,0,1,230,63.331h0a5.232,5.232,0,0,1-1.392.172h0A4.847,4.847,0,0,1,223.99,60.2ZM375.648,65.3h0a4.429,4.429,0,0,1-3.238-5.607h0a5,5,0,0,1,6.127-2.953h0a4.431,4.431,0,0,1,3.216,5.607h0A4.88,4.88,0,0,1,376.99,65.5h0A4.9,4.9,0,0,1,375.648,65.3ZM244.819,55.357a4.525,4.525,0,0,1,3.891-5.258h-.02a4.884,4.884,0,0,1,5.726,3.573h0a4.506,4.506,0,0,1-3.871,5.239h-.02a4.886,4.886,0,0,1-1.019.088h0A4.8,4.8,0,0,1,244.819,55.357Zm110.452,4.979a4.473,4.473,0,0,1-3.711-5.347h0a4.886,4.886,0,0,1,5.824-3.408h0a4.5,4.5,0,0,1,3.711,5.347h0a4.825,4.825,0,0,1-4.868,3.515h0A5.727,5.727,0,0,1,355.272,60.336Zm-89.265-8.258a4.606,4.606,0,0,1,4.332-4.943h0a4.817,4.817,0,0,1,5.384,4h0a4.569,4.569,0,0,1-4.332,4.926h0a3.846,3.846,0,0,1-.626.024h0A4.745,4.745,0,0,1,266.006,52.078Zm68.5,4.85h0a4.578,4.578,0,0,1-4.187-5.051h0a4.843,4.843,0,0,1,5.521-3.843h0a4.562,4.562,0,0,1,4.168,5.051h0a4.773,4.773,0,0,1-4.935,3.872h0A5.673,5.673,0,0,1,334.509,56.927Zm-47.08-6.508a4.652,4.652,0,0,1,4.755-4.594h0a4.7,4.7,0,0,1,5,4.366h0a4.666,4.666,0,0,1-4.755,4.594h0l-.235,0h0A4.68,4.68,0,0,1,287.428,50.42Zm21.485-.079a4.739,4.739,0,0,1,5.139-4.228h0a4.679,4.679,0,0,1,4.624,4.736h0a4.759,4.759,0,0,1-5.158,4.228h0A4.638,4.638,0,0,1,308.913,50.341Z" transform="translate(-31.768 -45.823)" fill="#d8d8d8"/>
      </g>
    </g>
  </g>
  <g id="Group_5005" data-name="Group 5005" transform="translate(54.299 191.757)">
    <ellipse id="Ellipse_620" data-name="Ellipse 620" cx="268.253" cy="15.192" rx="268.253" ry="15.192" transform="translate(0 224.591)" fill="#b7b7b7"/>
    <g id="Group_5004" data-name="Group 5004" transform="translate(20.62)">
      <g id="Group_5001" data-name="Group 5001" transform="translate(32.794)">
        <rect id="Rectangle_3082" data-name="Rectangle 3082" width="428.732" height="217.691" rx="13.5" transform="translate(0)" fill="#2d3e50"/>
        <path id="Path_2386" data-name="Path 2386" d="M511.115,242.785v94.709c0,7.809-7.73,14.139-17.265,14.139H99.649c-9.536,0-17.266-6.33-17.266-14.139V242.785Z" transform="translate(-82.383 -133.942)" fill="#1d2333"/>
        <path id="Path_2387" data-name="Path 2387" d="M494.814,161.391V320.779c0,4.689-5.041,8.493-11.264,8.493H108.543a13.1,13.1,0,0,1-8.381-2.818,7.43,7.43,0,0,1-2.888-5.674V161.391c0-4.689,5.046-8.493,11.269-8.493H483.55a14.05,14.05,0,0,1,5.7,1.169C492.579,155.54,494.814,158.271,494.814,161.391Z" transform="translate(-81.678 -138.197)" fill="#e6e6e6"/>
        <g id="Group_5000" data-name="Group 5000" transform="translate(41.498 41.531)">
          <rect id="Rectangle_3083" data-name="Rectangle 3083" width="348.059" height="134.676" fill="#fff"/>
          <rect id="Rectangle_3084" data-name="Rectangle 3084" width="348.059" height="11.562" fill="#b7b7b7"/>
          <g id="Group_4996" data-name="Group 4996" transform="translate(320.934 3.382)">
            <path id="Path_2388" data-name="Path 2388" d="M359.09,184.143a2.4,2.4,0,1,1-2.4-2.4A2.4,2.4,0,0,1,359.09,184.143Z" transform="translate(-354.293 -181.745)" fill="#edb92b"/>
            <path id="Path_2389" data-name="Path 2389" d="M366.513,184.143a2.4,2.4,0,1,1-2.4-2.4A2.4,2.4,0,0,1,366.513,184.143Z" transform="translate(-353.942 -181.745)" fill="#3bc161"/>
            <path id="Path_2390" data-name="Path 2390" d="M373.577,184.143a2.4,2.4,0,1,1-2.4-2.4A2.4,2.4,0,0,1,373.577,184.143Z" transform="translate(-353.607 -181.745)" fill="#dc4131"/>
          </g>
          <g id="Group_4997" data-name="Group 4997" transform="translate(134.403 29.961)">
            <circle id="Ellipse_621" data-name="Ellipse 621" cx="41.164" cy="41.164" r="41.164" fill="#317b85"/>
            <path id="Path_2391" data-name="Path 2391" d="M237.275,269.051V225.757L274.266,247.4Z" transform="translate(-212.127 -206.24)" fill="#fff"/>
          </g>
          <g id="Group_4998" data-name="Group 4998" transform="translate(15.378 21.857)" opacity="0.3">
            <rect id="Rectangle_3085" data-name="Rectangle 3085" width="43.348" height="5.803" transform="translate(0 92.734)" fill="#686868"/>
            <rect id="Rectangle_3086" data-name="Rectangle 3086" width="43.348" height="5.803" transform="translate(0 79.486)" fill="#686868"/>
            <rect id="Rectangle_3087" data-name="Rectangle 3087" width="43.348" height="5.803" transform="translate(0 66.239)" fill="#686868"/>
            <rect id="Rectangle_3088" data-name="Rectangle 3088" width="43.348" height="5.803" transform="translate(0 52.991)" fill="#686868"/>
            <rect id="Rectangle_3089" data-name="Rectangle 3089" width="43.348" height="5.803" transform="translate(0 39.743)" fill="#686868"/>
            <rect id="Rectangle_3090" data-name="Rectangle 3090" width="43.348" height="5.803" transform="translate(0 26.495)" fill="#686868"/>
            <rect id="Rectangle_3091" data-name="Rectangle 3091" width="43.348" height="5.803" transform="translate(0 13.248)" fill="#686868"/>
            <rect id="Rectangle_3092" data-name="Rectangle 3092" width="43.348" height="5.803" fill="#686868"/>
          </g>
          <g id="Group_4999" data-name="Group 4999" transform="translate(287.758 21.857)" opacity="0.3">
            <rect id="Rectangle_3093" data-name="Rectangle 3093" width="43.348" height="5.803" transform="translate(0 92.734)" fill="#686868"/>
            <rect id="Rectangle_3094" data-name="Rectangle 3094" width="43.348" height="5.803" transform="translate(0 79.486)" fill="#686868"/>
            <rect id="Rectangle_3095" data-name="Rectangle 3095" width="43.348" height="5.803" transform="translate(0 66.239)" fill="#686868"/>
            <rect id="Rectangle_3096" data-name="Rectangle 3096" width="43.348" height="5.803" transform="translate(0 52.991)" fill="#686868"/>
            <rect id="Rectangle_3097" data-name="Rectangle 3097" width="43.348" height="5.803" transform="translate(0 39.743)" fill="#686868"/>
            <rect id="Rectangle_3098" data-name="Rectangle 3098" width="43.348" height="5.803" transform="translate(0 26.495)" fill="#686868"/>
            <rect id="Rectangle_3099" data-name="Rectangle 3099" width="43.348" height="5.803" transform="translate(0 13.248)" fill="#686868"/>
            <rect id="Rectangle_3100" data-name="Rectangle 3100" width="43.348" height="5.803" fill="#686868"/>
          </g>
        </g>
      </g>
      <path id="Path_2392" data-name="Path 2392" d="M545.392,339.485V340.7a24.638,24.638,0,0,1-6.185,16.129c-5.935,6.921-15.595,11.423-26.5,11.423H83.758c-10.907,0-20.567-4.5-26.5-11.423A24.643,24.643,0,0,1,51.071,340.7v-1.211Z" transform="translate(-51.071 -129.364)" fill="#2d3e50"/>
      <path id="Path_2393" data-name="Path 2393" d="M205.4,339.485v.276c0,2.183,1.461,3.951,3.264,3.951h85.062c1.8,0,3.262-1.768,3.262-3.951v-.276Z" transform="translate(-5.156 -129.364)" fill="#d8d8d8"/>
      <rect id="Rectangle_3101" data-name="Rectangle 3101" width="25.423" height="3.406" rx="1.015" transform="translate(427.736 215.989)" fill="#d8d8d8"/>
      <path id="Path_2394" data-name="Path 2394" d="M539.943,356.041c-5.959,6.921-15.658,11.423-26.609,11.423H82.658c-10.951,0-20.65-4.5-26.61-11.423Z" transform="translate(-50.835 -128.58)" fill="#1d2333"/>
      <g id="Group_5003" data-name="Group 5003" transform="translate(48.39 14.701)">
        <path id="Path_2395" data-name="Path 2395" d="M494.814,161.965V172H97.274V161.965a7.835,7.835,0,0,1,2.033-5.187,12.209,12.209,0,0,1,9.236-3.879H483.55a12.194,12.194,0,0,1,9.232,3.879A7.84,7.84,0,0,1,494.814,161.965Z" transform="translate(-97.274 -152.898)" fill="#b7b7b7"/>
        <g id="Group_5002" data-name="Group 5002" transform="translate(369.205 9.553)">
          <path id="Path_2396" data-name="Path 2396" d="M380.447,164.418a2.4,2.4,0,1,1-2.4-2.4A2.4,2.4,0,0,1,380.447,164.418Z" transform="translate(-375.65 -162.019)" fill="#edb92b"/>
          <path id="Path_2397" data-name="Path 2397" d="M387.87,164.418a2.4,2.4,0,1,1-2.4-2.4A2.4,2.4,0,0,1,387.87,164.418Z" transform="translate(-375.299 -162.019)" fill="#3bc161"/>
          <path id="Path_2398" data-name="Path 2398" d="M394.934,164.418a2.4,2.4,0,1,1-2.4-2.4A2.4,2.4,0,0,1,394.934,164.418Z" transform="translate(-374.964 -162.019)" fill="#dc4131"/>
        </g>
        <path id="Rectangle_3102" data-name="Rectangle 3102" d="M1.512,0H169.725a1.513,1.513,0,0,1,1.513,1.513V3.563a1.513,1.513,0,0,1-1.513,1.513H1.512A1.512,1.512,0,0,1,0,3.563V1.512A1.512,1.512,0,0,1,1.512,0Z" transform="translate(109.863 7.505)" fill="#fff"/>
        <path id="Path_2399" data-name="Path 2399" d="M127.38,162.626v3.1l-2.681-1.548-2.681-1.548,2.681-1.548,2.681-1.548Z" transform="translate(-96.103 -152.584)" fill="#2d3e50"/>
        <path id="Path_2400" data-name="Path 2400" d="M135.231,162.626v3.1l2.681-1.548,2.681-1.548-2.681-1.548-2.681-1.548Z" transform="translate(-95.477 -152.584)" fill="#2d3e50"/>
      </g>
      <path id="Path_2401" data-name="Path 2401" d="M493.1,156.777H98.836a12.245,12.245,0,0,1,9.255-3.879H483.854A12.23,12.23,0,0,1,493.1,156.777Z" transform="translate(-48.81 -138.197)" opacity="0.2"/>
      <path id="Path_2402" data-name="Path 2402" d="M494.709,161.338V319.055c0,4.641-5.048,8.4-11.28,8.4H107.886a13.222,13.222,0,0,1-8.393-2.789L489.136,154.089C492.471,155.547,494.709,158.249,494.709,161.338Z" transform="translate(-48.779 -138.141)" fill="#fff" opacity="0.2"/>
    </g>
  </g>
  <g id="Group_5042" data-name="Group 5042" transform="translate(58.963 292.954)">
    <path id="Path_2403" data-name="Path 2403" d="M193.7,422.954,169.53,395.933H38.465A3.522,3.522,0,0,0,37,401.326l14.738,19.34a20.693,20.693,0,0,0,16.458,8.151H191.075A3.518,3.518,0,0,0,193.7,422.954Z" transform="translate(-21.54 -238.376)" fill="#b7b7b7"/>
    <g id="Group_5016" data-name="Group 5016" transform="translate(14.975 128.795)">
      <g id="Group_5007" data-name="Group 5007">
        <g id="Group_5006" data-name="Group 5006">
          <path id="Path_2404" data-name="Path 2404" d="M37.192,382.645c1.706,6.289,21.992,27.338,26.335,31.79a16.3,16.3,0,0,0,12.332,6.242,2.277,2.277,0,0,0,.24.012h99.8a2.316,2.316,0,1,0,0-4.632H76.357a11.68,11.68,0,0,1,0-23.359H175.9a2.317,2.317,0,1,0,0-4.633h-.145l.389-.788-41.774-22.289H50.491S32.962,367.063,37.192,382.645Z" transform="translate(-36.533 -364.987)" fill="#317b85"/>
        </g>
      </g>
      <path id="Path_2405" data-name="Path 2405" d="M67.187,401.2c.045-.095.091-.188.139-.281a11.674,11.674,0,0,1,10.021-6.285,11.579,11.579,0,0,1,1.169-.059H178.06a2.322,2.322,0,0,0,2.321-2.215H78.517A11.7,11.7,0,0,0,67.187,401.2Z" transform="translate(-38.696 -366.919)" opacity="0.2"/>
      <g id="Group_5008" data-name="Group 5008" transform="translate(27.313 27.71)">
        <path id="Path_2406" data-name="Path 2406" d="M77.6,418.16H177.972V394.8H77.6a11.68,11.68,0,0,0-10.362,6.291h0a11.683,11.683,0,0,0,0,10.777h0A11.679,11.679,0,0,0,77.6,418.16Z" transform="translate(-65.92 -394.801)" fill="#fff"/>
      </g>
      <g id="Group_5015" data-name="Group 5015" transform="translate(39.469 33.212)">
        <g id="Group_5010" data-name="Group 5010">
          <g id="Group_5009" data-name="Group 5009">
            <path id="Path_2407" data-name="Path 2407" d="M178.895,402.279H79.778a.779.779,0,0,1,0-1.558h99.117Z" transform="translate(-78.999 -400.721)" fill="#d8d8d8"/>
          </g>
        </g>
        <g id="Group_5012" data-name="Group 5012" transform="translate(0 5.398)">
          <g id="Group_5011" data-name="Group 5011">
            <path id="Path_2408" data-name="Path 2408" d="M178.895,408.087H79.778a.779.779,0,0,1,0-1.558h99.117Z" transform="translate(-78.999 -406.529)" fill="#d8d8d8"/>
          </g>
        </g>
        <g id="Group_5014" data-name="Group 5014" transform="translate(0 10.796)">
          <g id="Group_5013" data-name="Group 5013">
            <path id="Path_2409" data-name="Path 2409" d="M178.895,413.895H79.778a.779.779,0,0,1,0-1.558h99.117Z" transform="translate(-78.999 -412.337)" fill="#d8d8d8"/>
          </g>
        </g>
      </g>
    </g>
    <g id="Group_5027" data-name="Group 5027" transform="translate(14.731 95.978)">
      <g id="Group_5018" data-name="Group 5018">
        <g id="Group_5017" data-name="Group 5017">
          <path id="Path_2410" data-name="Path 2410" d="M36.93,347.337c1.791,6.592,24.008,29.419,26.85,32.317a16.294,16.294,0,0,0,12.06,5.906c.079.007.159.012.24.012h99.8a2.316,2.316,0,1,0,0-4.632H76.339a11.68,11.68,0,0,1,0-23.36h99.54a2.317,2.317,0,1,0,0-4.634H175.4l.483-.979-41.773-22.289H50.228S32.7,331.755,36.93,347.337Z" transform="translate(-36.271 -329.679)" fill="#666"/>
        </g>
      </g>
      <path id="Path_2411" data-name="Path 2411" d="M67.192,366.091c.042-.093.088-.182.135-.273a11.674,11.674,0,0,1,10.148-6.287c.344-.031.691-.046,1.043-.046h99.543a2.32,2.32,0,0,0,2.321-2.215H78.517A11.707,11.707,0,0,0,67.192,366.091Z" transform="translate(-38.453 -331.626)" opacity="0.2"/>
      <g id="Group_5019" data-name="Group 5019" transform="translate(27.557 27.902)">
        <path id="Path_2412" data-name="Path 2412" d="M77.6,383.058H177.972V359.7H77.6a11.679,11.679,0,0,0-10.362,6.29h0a11.683,11.683,0,0,0,0,10.777h0A11.68,11.68,0,0,0,77.6,383.058Z" transform="translate(-65.92 -359.699)" fill="#fff"/>
      </g>
      <g id="Group_5026" data-name="Group 5026" transform="translate(39.712 33.404)">
        <g id="Group_5021" data-name="Group 5021">
          <g id="Group_5020" data-name="Group 5020">
            <path id="Path_2413" data-name="Path 2413" d="M178.895,367.177H79.778a.779.779,0,1,1,0-1.558h99.117Z" transform="translate(-78.998 -365.619)" fill="#d8d8d8"/>
          </g>
        </g>
        <g id="Group_5023" data-name="Group 5023" transform="translate(0 5.398)">
          <g id="Group_5022" data-name="Group 5022">
            <path id="Path_2414" data-name="Path 2414" d="M178.895,372.985H79.778a.779.779,0,1,1,0-1.558h99.117Z" transform="translate(-78.998 -371.427)" fill="#d8d8d8"/>
          </g>
        </g>
        <g id="Group_5025" data-name="Group 5025" transform="translate(0 10.795)">
          <g id="Group_5024" data-name="Group 5024">
            <path id="Path_2415" data-name="Path 2415" d="M178.895,378.793H79.778a.779.779,0,1,1,0-1.559h99.117Z" transform="translate(-78.998 -377.234)" fill="#d8d8d8"/>
          </g>
        </g>
      </g>
    </g>
    <g id="Group_5037" data-name="Group 5037" transform="translate(16.138 64.817)">
      <g id="Group_5028" data-name="Group 5028" transform="translate(26.149 26.437)">
        <path id="Path_2416" data-name="Path 2416" d="M77.6,347.955H177.972V324.6H77.6a11.68,11.68,0,0,0-10.362,6.291h0a11.683,11.683,0,0,0,0,10.777h0A11.679,11.679,0,0,0,77.6,347.955Z" transform="translate(-65.92 -324.596)" fill="#fff"/>
      </g>
      <g id="Group_5029" data-name="Group 5029">
        <path id="Path_2417" data-name="Path 2417" d="M38.444,313.808c1.213,4.451,11.689,16.254,19.262,24.371.067.067.134.143.21.219.105.115.21.22.306.325,2.349,2.511,4.373,4.622,5.71,6a.537.537,0,0,0,.076.076c.793.822,1.327,1.366,1.509,1.557l.066.067.01.009a16.161,16.161,0,0,0,10.351,4.135,1.9,1.9,0,0,0,.239.019h99.8a2.321,2.321,0,1,0,0-4.642H76.442a11.673,11.673,0,0,1-11.679-11.678,11.33,11.33,0,0,1,.478-3.295.036.036,0,0,1,.009-.029,11.7,11.7,0,0,1,11.192-8.356h99.543a2.323,2.323,0,0,0,2.321-2.216v-.1a2.338,2.338,0,0,0-.907-1.833l-.009-.01a2.662,2.662,0,0,0-.688-.362l-.029-.009L135.62,296.152H51.747S34.214,298.225,38.444,313.808Z" transform="translate(-37.786 -296.152)" fill="#ffca3a"/>
      </g>
      <path id="Path_2418" data-name="Path 2418" d="M66.811,333.887c0,.23.009.458.019.688a.6.6,0,0,1,.01.1,8.282,8.282,0,0,1,.449-1.863.036.036,0,0,1,.009-.029,11.7,11.7,0,0,1,11.192-8.356h99.543a2.322,2.322,0,0,0,2.321-2.216H78.49A11.7,11.7,0,0,0,66.811,333.887Z" transform="translate(-39.834 -297.991)" opacity="0.2"/>
      <g id="Group_5036" data-name="Group 5036" transform="translate(38.305 31.939)">
        <g id="Group_5031" data-name="Group 5031">
          <g id="Group_5030" data-name="Group 5030">
            <path id="Path_2419" data-name="Path 2419" d="M178.895,332.075H79.778a.779.779,0,0,1,0-1.559h99.117Z" transform="translate(-78.999 -330.516)" fill="#d8d8d8"/>
          </g>
        </g>
        <g id="Group_5033" data-name="Group 5033" transform="translate(0 5.398)">
          <g id="Group_5032" data-name="Group 5032">
            <path id="Path_2420" data-name="Path 2420" d="M178.895,337.883H79.778a.779.779,0,0,1,0-1.559h99.117Z" transform="translate(-78.999 -336.324)" fill="#d8d8d8"/>
          </g>
        </g>
        <g id="Group_5035" data-name="Group 5035" transform="translate(0 10.796)">
          <g id="Group_5034" data-name="Group 5034">
            <path id="Path_2421" data-name="Path 2421" d="M178.895,343.69H79.778a.779.779,0,0,1,0-1.558h99.117Z" transform="translate(-78.999 -342.132)" fill="#d8d8d8"/>
          </g>
        </g>
      </g>
    </g>
    <g id="Group_5041" data-name="Group 5041">
      <path id="Path_2422" data-name="Path 2422" d="M62.993,258.344V307a163.489,163.489,0,0,0,95.772,0V258.344Z" transform="translate(-23.426 -228.667)" fill="#111"/>
      <path id="Path_2423" data-name="Path 2423" d="M109.924,269.3l-89.5-18.739,89.5-24.151,85.669,24.151Z" transform="translate(-20.422 -226.414)" fill="#ffca3a"/>
      <g id="Group_5038" data-name="Group 5038" transform="translate(86.502 19.64)">
        <path id="Path_2424" data-name="Path 2424" d="M167.576,316.057a.951.951,0,0,1-.951-.95V260.394l-52.377-10.966a.951.951,0,1,1,.389-1.862l53.134,11.125a.95.95,0,0,1,.756.93v55.486A.951.951,0,0,1,167.576,316.057Z" transform="translate(-113.491 -247.546)" fill="#2d3e50"/>
      </g>
      <ellipse id="Ellipse_622" data-name="Ellipse 622" cx="8.344" cy="2.958" rx="8.344" ry="2.958" transform="translate(79.558 17.634)" fill="#f4f4f4"/>
      <g id="Group_5040" data-name="Group 5040" transform="translate(132.969 84.812)">
        <g id="Group_5039" data-name="Group 5039" transform="translate(0 1.938)">
          <path id="Path_2425" data-name="Path 2425" d="M178.093,338.984a17.975,17.975,0,0,1-1.693.691q-.58.209-1.16.364a15.834,15.834,0,0,1-2.744.517c-.387.038-.776.06-1.163.07a15.614,15.614,0,0,1-3.606-.355c-.415-.088-.827-.193-1.239-.32a18.479,18.479,0,0,1-2.538-.967.794.794,0,0,1-.425-.967l5.523-16.839a2.075,2.075,0,0,1,3.943,0l5.526,16.839A.794.794,0,0,1,178.093,338.984Z" transform="translate(-163.487 -319.75)" fill="#2d3e50"/>
          <path id="Path_2426" data-name="Path 2426" d="M167.956,341.506c-.415-.088-.827-.193-1.239-.32l.967-3.917Z" transform="translate(-163.714 -320.987)" fill="#2d3e50"/>
          <path id="Path_2427" data-name="Path 2427" d="M177.219,340.564q-.58.209-1.16.364l-.972-8.575Z" transform="translate(-164.305 -320.64)" fill="#2d3e50"/>
          <path id="Path_2428" data-name="Path 2428" d="M173.093,341.747c-.387.038-.776.06-1.163.07l.269-5.175Z" transform="translate(-164.082 -320.942)" fill="#2d3e50"/>
        </g>
        <path id="Path_2429" data-name="Path 2429" d="M174.424,320.727a3.063,3.063,0,1,1-3.063-3.062A3.063,3.063,0,0,1,174.424,320.727Z" transform="translate(-163.826 -317.665)" fill="#2d3e50"/>
      </g>
    </g>
  </g>
  <g id="Group_5117" data-name="Group 5117" transform="translate(203.663 365.455)">
    <ellipse id="Ellipse_623" data-name="Ellipse 623" cx="60.846" cy="15.494" rx="60.846" ry="15.494" transform="translate(0 111.729)" fill="#b7b7b7"/>
    <g id="Group_5116" data-name="Group 5116" transform="translate(7.018)">
      <g id="Group_5093" data-name="Group 5093" transform="translate(4.068)">
        <path id="Path_2458" data-name="Path 2458" d="M178.014,362.16c8.513,2.541,15.855,4.01,26.94,1.7,1.381-5.481,6.968-23.07,7.822-31.374a26.6,26.6,0,0,0-.907-7.854c-1.365-4.426-5.388-9.449-14.633-9.784-10.91-.4-17,10.036-16.729,21.739C180.667,343.5,178.612,358.015,178.014,362.16Z" transform="translate(-178.014 -314.841)" fill="#1d2333"/>
      </g>
      <path id="Path_2459" data-name="Path 2459" d="M229.046,405.566C210.91,381.183,203.56,354.1,203.56,354.1l.026,23.54s15.47,25.909,20.856,31.681C226.589,409.32,229.046,408.353,229.046,405.566Z" transform="translate(-172.737 -312.982)" fill="#00aab3"/>
      <g id="Group_5096" data-name="Group 5096" transform="translate(22.259 91.304)">
        <g id="Group_5095" data-name="Group 5095">
          <g id="Group_5094" data-name="Group 5094">
            <path id="Path_2460" data-name="Path 2460" d="M196.711,410.973s25.412-11.308,36.947-8.51,36.993,29.087,36.993,29.087c.325,2.883-1.555,4.876-4.71,6.354,0,0-20.94-12.528-33.8-24.878,0,0-22.059,11.973-34.212,8.146C196.75,420.8,193.613,414.282,196.711,410.973Z" transform="translate(-195.383 -402.018)" fill="#171c29"/>
          </g>
        </g>
        <path id="Path_2461" data-name="Path 2461" d="M262.528,436.877A3.635,3.635,0,0,0,263.8,438.5c1.059.849,4.793,3.673,4.793,3.673l14.3-17.824a6.79,6.79,0,0,0-6.016-1.222c-3.293,1.069-4.624,5.7-9.612,7.152C267.263,430.283,267.363,431.821,262.528,436.877Z" transform="translate(-192.204 -401.032)" fill="#ffca3a"/>
      </g>
      <g id="Group_5106" data-name="Group 5106" transform="translate(9.529 12.099)">
        <g id="Group_5097" data-name="Group 5097" transform="translate(4.16 19.212)">
          <path id="Path_2462" data-name="Path 2462" d="M197.332,347.893l-.482,2.7-.54,3.05-.466,2.635a5.871,5.871,0,0,1-4.906.092,14.416,14.416,0,0,1-3.738-2.075l.018-.213.082-1,.548-6.731.111-1.411c.842-.429,2.167-.12,3.567.415,1.377.519,2.831,1.265,3.974,1.733C196.586,347.535,197.332,347.893,197.332,347.893Z" transform="translate(-187.2 -344.737)" fill="#eab287"/>
        </g>
        <g id="Group_5098" data-name="Group 5098" transform="translate(6.84 20.923)">
          <path id="Path_2463" data-name="Path 2463" d="M197.209,347.817l-1.02,5.747c-3.805-1.376-6.43-7.194-6.43-7.194l5.621.639C196.467,347.458,197.209,347.817,197.209,347.817Z" transform="translate(-189.759 -346.37)" fill="#de9367"/>
        </g>
        <g id="Group_5099" data-name="Group 5099" transform="translate(2.21)">
          <path id="Path_2464" data-name="Path 2464" d="M203.576,351.24a13.026,13.026,0,0,1-6.636.219,21.313,21.313,0,0,1-5.6-2.106,30.012,30.012,0,0,1-3.4-2.134c-.756-.546-1.371-1.042-1.8-1.406-.466-.4-.722-.645-.722-.645s-.093-1.446-.065-3.547a45.463,45.463,0,0,1,.743-7.951c.659-3.29,1.866-6.262,4.061-7.276l3.584.032,16.975.157s.022.255.049.714c.057,1,.135,2.97.076,5.372,0,.181-.009.361-.016.548C210.6,339.893,209.269,349.457,203.576,351.24Z" transform="translate(-185.338 -326.393)" fill="#eab287"/>
        </g>
        <g id="Group_5100" data-name="Group 5100" transform="translate(2.211 15.227)">
          <path id="Path_2465" data-name="Path 2465" d="M187.335,347.946a23.992,23.992,0,0,1-1.927-3.466s-.092-1.447-.064-3.548l1.527.855S188.976,346.731,187.335,347.946Z" transform="translate(-185.339 -340.932)" fill="#1d2333"/>
        </g>
        <g id="Group_5103" data-name="Group 5103" transform="translate(0 7.235)">
          <g id="Group_5102" data-name="Group 5102">
            <g id="Group_5101" data-name="Group 5101">
              <path id="Path_2466" data-name="Path 2466" d="M189.029,335.422s-2.084-3.448-4.457-1.552c-2.615,2.091-1.441,9.442,3.775,9.4Z" transform="translate(-183.228 -333.301)" fill="#eab287"/>
            </g>
          </g>
        </g>
        <g id="Group_5104" data-name="Group 5104" transform="translate(2.957)">
          <path id="Path_2467" data-name="Path 2467" d="M210.72,327.3c-.051,2.192-3.892,4.385-17.921,4.511,0,0-.005,6.465-2.767,5.876-.658-.14-1.3-3.84-3.98-4.018.658-3.289,1.866-6.26,4.061-7.274l20.56.19S210.694,326.838,210.72,327.3Z" transform="translate(-186.052 -326.393)" fill="#1d2333"/>
        </g>
        <g id="Group_5105" data-name="Group 5105" transform="translate(2.211)">
          <path id="Path_2468" data-name="Path 2468" d="M194.189,327.168s-1.656,9.672-2.575,19.054c-.1,1.051-.2,2.1-.277,3.132-.187,2.375-1.976,5.082-4.031,5.595l.629-7.73c-.758-.546-1.373-1.041-1.8-1.407-.468-.4-.724-.644-.724-.644s-.09-1.445-.063-3.548a45.071,45.071,0,0,1,.742-7.951c.657-3.289,1.866-6.261,4.062-7.275l3.585.032A1.433,1.433,0,0,1,194.189,327.168Z" transform="translate(-185.339 -326.393)" fill="#1d2333"/>
        </g>
      </g>
      <g id="Group_5109" data-name="Group 5109" transform="translate(0.859 100.605)">
        <g id="Group_5108" data-name="Group 5108">
          <g id="Group_5107" data-name="Group 5107">
            <path id="Path_2469" data-name="Path 2469" d="M176.825,412.5s31.732-2.694,43.5-1.1,39.8,25.108,39.8,25.108c.62,2.835-1.043,5.012-4.028,6.807,0,0-22.122-10.3-36.19-21.251,0,0-24.323,12.5-36.983,11.056C172.959,431.984,174.16,416.654,176.825,412.5Z" transform="translate(-174.95 -410.897)" fill="#171c29"/>
          </g>
        </g>
        <path id="Path_2470" data-name="Path 2470" d="M252.2,442.543a3.643,3.643,0,0,0,1.437,1.486c1.141.735,5.147,3.158,5.147,3.158l12.376-19.206a6.791,6.791,0,0,0-6.11-.594c-3.164,1.4-4.009,6.151-8.822,8.107C256.226,435.494,256.484,437.014,252.2,442.543Z" transform="translate(-171.293 -410.14)" fill="#ffca3a"/>
      </g>
      <g id="Group_5111" data-name="Group 5111" transform="translate(0.068 40.304)">
        <path id="Path_2471" data-name="Path 2471" d="M204.186,393.372c-.477,8.3,1.053,13.111,3.426,20.24-14.022,4.976-20.435,6.895-32.04,5.015-.407-6.819-1.55-18.691-1.353-25.839a263.375,263.375,0,0,1,3.007-34.9l5.836-2.255,5.98-2.311,10.145.516,2.134.109,3.63.187a75.382,75.382,0,0,0,3.675,19.238c2.612,7.226-.384,8.678-2.021,10.4-.065.067-.125.133-.184.2a3.273,3.273,0,0,0-.557.85c-.04.094-.079.2-.119.3-.1.271-.2.576-.288.9A56.421,56.421,0,0,0,204.186,393.372Z" transform="translate(-174.195 -353.323)" fill="#225b61"/>
        <g id="Group_5110" data-name="Group 5110" transform="translate(14.979 30.448)">
          <path id="Path_2472" data-name="Path 2472" d="M205.927,382.4c-.065.067-.125.133-.184.2a3.274,3.274,0,0,0-.557.85c-.04.094-.079.2-.119.3a38.572,38.572,0,0,1-15.156,2.978c-.326,0-.657,0-.992-.012a.429.429,0,0,1,.008-.859h.01A37.329,37.329,0,0,0,205.927,382.4Z" transform="translate(-188.497 -382.395)" fill="#225b61"/>
        </g>
        <path id="Path_2473" data-name="Path 2473" d="M198.785,353.839c-.393,3.828-.334,10.243-5.155,10.368-5.8.151-9.677-6.121-10.969-8.571l5.979-2.312Z" transform="translate(-173.795 -353.323)" fill="#225b61"/>
      </g>
      <g id="Group_5112" data-name="Group 5112" transform="translate(0 44.871)">
        <path id="Path_2474" data-name="Path 2474" d="M219.678,408.292c-7.445-4.148-23.353-13.41-23.353-13.41s-8.887-11.036-19.1-37.2c0,0-5.171,4.618-2.151,18.565s15.908,26.831,15.908,26.831,17.4,8.649,25.113,9.222Z" transform="translate(-174.13 -357.683)" fill="#00aab3"/>
      </g>
      <g id="Group_5115" data-name="Group 5115" transform="translate(23.109 73.574)">
        <path id="Rectangle_3103" data-name="Rectangle 3103" d="M1.938,0H53.023A1.937,1.937,0,0,1,54.96,1.937v.282a1.937,1.937,0,0,1-1.937,1.937H1.935A1.935,1.935,0,0,1,0,2.221V1.938A1.938,1.938,0,0,1,1.938,0Z" transform="translate(0 26.969) rotate(-5.713)" fill="#e6e6e6"/>
        <g id="Group_5114" data-name="Group 5114" transform="translate(7.576)">
          <g id="Group_5113" data-name="Group 5113">
            <path id="Path_2475" data-name="Path 2475" d="M250.828,410.722l-44.741,4.327,11.157-25.633,44.741-4.327Z" transform="translate(-203.303 -385.089)" fill="#fff"/>
            <path id="Path_2476" data-name="Path 2476" d="M248.172,410.8l0,.009-44.74,4.327L214.584,389.5l2.783-.27-11.154,25.625Z" transform="translate(-203.428 -384.893)" fill="#e6e6e6"/>
          </g>
          <path id="Path_2477" data-name="Path 2477" d="M236.29,399.183a2.863,2.863,0,1,1-3.135-2.565A2.863,2.863,0,0,1,236.29,399.183Z" transform="translate(-202.143 -384.544)" fill="#2d3e50" opacity="0.5"/>
        </g>
      </g>
    </g>
  </g>
  <g id="Group_5128" data-name="Group 5128" transform="translate(169.793 18.13)">
    <g id="Group_5118" data-name="Group 5118" transform="translate(17.039 40.874)">
      <path id="Path_2478" data-name="Path 2478" d="M168.236,126.761l1.876-54.572a81.164,81.164,0,0,0-10.843-1.939c-.388-.041-.777-.08-1.175-.116a46.245,46.245,0,0,0-11.672.212l-.566.1-12,2.044,1.273,54.275Z" transform="translate(-133.852 -69.868)" fill="#ffca3a"/>
    </g>
    <g id="Group_5121" data-name="Group 5121" transform="translate(20.442)">
      <g id="Group_5120" data-name="Group 5120">
        <g id="Group_5119" data-name="Group 5119" transform="translate(10.197 33.081)">
          <path id="Path_2479" data-name="Path 2479" d="M155.893,62.427v8.181c-.15.065-.3.129-.447.186a10.582,10.582,0,0,1-8.609-.186V62.427Z" transform="translate(-146.837 -62.427)" fill="#eab287"/>
          <path id="Path_2480" data-name="Path 2480" d="M155.893,64.32v6.2c-.15.065-.3.129-.447.186a20.413,20.413,0,0,1-8.609-3.429V64.32Z" transform="translate(-146.837 -62.337)" fill="#de9367"/>
        </g>
        <path id="Path_2481" data-name="Path 2481" d="M141.663,49.8s-1-2.345-2.989-2.814-1.934,4.513-.7,8.147,4.338,2.228,4.338,2.228Z" transform="translate(-137.101 -30.079)" fill="#de9367"/>
        <path id="Path_2482" data-name="Path 2482" d="M160.859,49.8s1-2.345,2.99-2.814,1.934,4.513.7,8.147-4.337,2.228-4.337,2.228Z" transform="translate(-136.007 -30.079)" fill="#de9367"/>
        <path id="Path_2483" data-name="Path 2483" d="M151.62,67.052h0c-6.045,0-10.947-6.494-10.947-12.213V41.9h21.894V54.839C162.567,60.558,157.665,67.052,151.62,67.052Z" transform="translate(-136.932 -30.318)" fill="#eab287"/>
        <path id="Path_2484" data-name="Path 2484" d="M140.766,51.837s-3.741-5.627-1.137-9.408a7.571,7.571,0,0,1,0-6.306c1.6-3.078,8.347-6.618,17.756-4.772s7.63,8.792,6.453,10.726c0,0,2.34,4.309-1.177,9.76,0,0-2.061-2.813-1.426-8.792,0,0-10.472,2.989-19-.616C142.232,42.429,143.4,49.375,140.766,51.837Z" transform="translate(-137.025 -30.842)" fill="#1d2333"/>
      </g>
    </g>
    <g id="Group_5122" data-name="Group 5122" transform="translate(3.419 43.482)">
      <path id="Path_2485" data-name="Path 2485" d="M134.388,72.358s-8.594,12.208-11.864,22.533c0,0,4.472,5.306,7.484,6.439l5.482-14.486S138.164,78.392,134.388,72.358Z" transform="translate(-120.768 -72.358)" fill="#225b61"/>
      <path id="Path_2486" data-name="Path 2486" d="M130.088,100.311s4.053,6.816,11.7,18.677l-4.26,3.063-14.066-15.733a7.3,7.3,0,0,1-2.431-7.113l1.569-5.334S128.28,95.995,130.088,100.311Z" transform="translate(-120.847 -71.339)" fill="#225b61"/>
    </g>
    <g id="Group_5123" data-name="Group 5123" transform="translate(45.976 43.193)">
      <path id="Path_2487" data-name="Path 2487" d="M168.566,72.082s8.593,12.207,11.863,22.531c0,0-4.472,5.307-7.484,6.439l-5.5-14.2S164.789,78.116,168.566,72.082Z" transform="translate(-161.242 -72.082)" fill="#225b61"/>
      <path id="Path_2488" data-name="Path 2488" d="M173.184,100.034s-4.053,6.817-11.7,18.678l4.26,3.063,14.067-15.733a7.3,7.3,0,0,0,2.43-7.114l-1.569-5.334S174.992,95.718,173.184,100.034Z" transform="translate(-161.481 -71.064)" fill="#225b61"/>
    </g>
    <path id="Path_2489" data-name="Path 2489" d="M151.166,136.578a14.251,14.251,0,0,1,.339-3.984c.855-4.675,3.6-14.187,11.661-13.07,10.643,1.476,7.3,21.708,7.3,21.708l-6.263,49.737a30.759,30.759,0,0,1-7.68,0S153.762,162.06,151.166,136.578Z" transform="translate(-115.995 -26.648)" fill="#999"/>
    <path id="Path_2490" data-name="Path 2490" d="M120.63,119.452s9.961,14.816,21,20.6c11.8,6.182,17.091-5.3,17.091-5.3S132.453,116.125,120.63,119.452Z" transform="translate(-117.439 -26.666)" fill="#999"/>
    <path id="Path_2491" data-name="Path 2491" d="M168.025,114.572s.693,9.411-2.146,12.121-20.134,2.839-25.942,1.033-4.778-13.632-4.778-13.632Z" transform="translate(-116.754 -26.9)" fill="#666"/>
    <g id="Group_5124" data-name="Group 5124" transform="translate(10.644 64.212)">
      <path id="Path_2492" data-name="Path 2492" d="M172.26,117.772H131.55l-3.759-21.98a3.116,3.116,0,0,1,3.072-3.642h42.042a3.116,3.116,0,0,1,3.072,3.642Z" transform="translate(-127.746 -92.151)" fill="#fff"/>
      <path id="Rectangle_3104" data-name="Rectangle 3104" d="M0,0H40.71a0,0,0,0,1,0,0V1.638A3.141,3.141,0,0,1,37.569,4.78H3.141A3.141,3.141,0,0,1,0,1.638V0A0,0,0,0,1,0,0Z" transform="translate(3.804 25.621)" fill="#666"/>
      <circle id="Ellipse_624" data-name="Ellipse 624" cx="3.532" cy="3.532" r="3.532" transform="translate(21.019 10.185)" fill="#2d3e50" opacity="0.5"/>
    </g>
    <g id="Group_5127" data-name="Group 5127" transform="translate(0 79.303)">
      <g id="Group_5126" data-name="Group 5126" transform="translate(59.256 25.014)">
        <g id="Group_5125" data-name="Group 5125">
          <path id="Path_2493" data-name="Path 2493" d="M189.861,141.16c-2.141,2.109-4.85,2.111-7.452.524-1.1-.673-2.747-1.574-4.28-2.392-2.087-1.115-3.967-2.071-3.967-2.071l2.411-5.51s1.482.041,3.578-.01h0c1.749-.042,3.928-.148,6.026-.395,4.618-.545,6.768-1.686,7.339.106S192,139.049,189.861,141.16Z" transform="translate(-174.161 -130.443)" fill="#2d3e50"/>
        </g>
      </g>
      <path id="Path_2494" data-name="Path 2494" d="M135.028,108.734s-7.988-4.809-14.74-.121.391,13.522,7.773,16.518S179,140.19,179,140.19a39.165,39.165,0,0,0,2.056-7.474s-12.967-7.354-20.254-12.045C144.21,109.987,135.028,108.734,135.028,108.734Z" transform="translate(-117.583 -106.56)" fill="#999"/>
    </g>
    <path id="Path_2495" data-name="Path 2495" d="M163.992,187.736a121.585,121.585,0,0,1,7.215,12.9c2.732,5.978.069,7.808-3.861,7.544-6.541-.44-11.663-15.883-11.663-15.883l.611-4.563S157.767,187.893,163.992,187.736Z" transform="translate(-115.779 -23.414)" fill="#2d3e50"/>
  </g>
  <g id="Group_5151" data-name="Group 5151" transform="translate(381.355 78.812)">
    <g id="Group_5129" data-name="Group 5129" transform="translate(36.274 19.49)">
      <path id="Path_2496" data-name="Path 2496" d="M358.421,103.664c2.751-4.622,7.286-9.621,5.314-15.009l-.226-.621c-5.422-15.028-18.319-25.3-32.01-19.417-11.6,4.986-14.244,13.364-13.8,19.668a27.478,27.478,0,0,0,3.289,9.747q1.728,2.781,3.363,5.366a23.184,23.184,0,0,0,14.129,10.164A80.412,80.412,0,0,0,358.421,103.664Z" transform="translate(-317.655 -66.934)" fill="#1d2333"/>
    </g>
    <circle id="Ellipse_625" data-name="Ellipse 625" cx="13.878" cy="13.878" r="13.878" transform="translate(48.977 10.691) rotate(-22.654)" fill="#1d2333"/>
    <g id="Group_5132" data-name="Group 5132" transform="translate(6.497 70.832)">
      <g id="Group_5131" data-name="Group 5131">
        <g id="Group_5130" data-name="Group 5130">
          <path id="Path_2497" data-name="Path 2497" d="M294.959,128.334s13.882,17.01,44.626,20.689l.007-.01v0c4.867-5.43,10.282-18.167,13.887-28.748,1.349-3.954,1.427-6.265.269-8.709a11.086,11.086,0,0,0-5.567-5.349c-.55-.243-1.08-.253-1.572.768-1.115,2.312-2.224,5.037-3.49,7.7-3.838,8.07-6.858,15.526-8.712,20.352h0a70.218,70.218,0,0,0-17.833-4.339c-10.243-1.164-18.54-7.8-18.54-7.8Z" transform="translate(-294.959 -106.067)" fill="#225b61"/>
        </g>
      </g>
    </g>
    <g id="Group_5138" data-name="Group 5138" transform="translate(58.559 63.692)">
      <g id="Group_5133" data-name="Group 5133">
        <path id="Path_2498" data-name="Path 2498" d="M340.939,150.788c.122-6.137.4-2.19-.672-9.631-.033-.291-.07-.589-.106-.884-.1-.169-.192-.335-.281-.5a27.955,27.955,0,0,1-3.086-6.708c-1.782-6.689-.445-10.934.037-15.139-.39-1.94-1.755-8.5-2.191-10.436l8.574-3.308,1.786-.689.106-.041v0l1.826-.7.14-.051a30.785,30.785,0,0,1,12.973-2.01c.291.018.575.037.866.066l3.277.291.125.011,2.1.188,12.178,1.084,3.575,48.466Z" transform="translate(-334.64 -100.625)" fill="#ffca3a"/>
      </g>
      <g id="Group_5135" data-name="Group 5135" transform="translate(8.571 0)">
        <g id="Group_5134" data-name="Group 5134">
          <path id="Path_2499" data-name="Path 2499" d="M364.377,101.236c-3.977,8.014-13.713,16.968-18.7,14.2-3.069-1.7-4.323-7.268-4.5-11.262l1.788-.686.108-.041v0l1.825-.7.14-.054a30.811,30.811,0,0,1,12.974-2.009l.451.062.412.051,3.279.244.126.01Z" transform="translate(-341.173 -100.625)" fill="#ffca3a"/>
        </g>
      </g>
      <g id="Group_5137" data-name="Group 5137" transform="translate(5.24 36.745)">
        <g id="Group_5136" data-name="Group 5136">
          <path id="Path_2500" data-name="Path 2500" d="M338.913,131.534c.035.3.076.59.108.883,2.112.451,8.743,1.383,20.014-1.316q2.192-.525,4.621-1.244a.625.625,0,1,0-.356-1.2c-16.26,4.829-24.56,2.406-24.643,2.383l-.024-.007C338.724,131.2,338.816,131.364,338.913,131.534Z" transform="translate(-338.634 -128.632)" fill="#ffca3a"/>
        </g>
      </g>
    </g>
    <g id="Group_5145" data-name="Group 5145" transform="translate(38.704 29.454)">
      <g id="Group_5139" data-name="Group 5139" transform="translate(28.13 23.502)">
        <path id="Path_2501" data-name="Path 2501" d="M340.948,100.969l1.982,3.17,2.24,3.587,1.934,3.094a7.991,7.991,0,0,0,6.259-2.381,19.638,19.638,0,0,0,3.671-4.53l-4.864-9.728-.865-1.729c-1.283-.117-2.8.95-4.3,2.341-1.477,1.363-2.938,3.044-4.146,4.222C341.7,100.133,340.948,100.969,340.948,100.969Z" transform="translate(-340.948 -92.441)" fill="#eab287"/>
      </g>
      <g id="Group_5140" data-name="Group 5140" transform="translate(28.132 26.4)">
        <path id="Path_2502" data-name="Path 2502" d="M340.949,100.278l4.222,6.757c4.116-3.681,4.474-12.385,4.474-12.385l-6.791,3.674C341.7,99.447,340.949,100.278,340.949,100.278Z" transform="translate(-340.949 -94.65)" fill="#de9367"/>
      </g>
      <g id="Group_5141" data-name="Group 5141" transform="translate(0.004)">
        <path id="Path_2503" data-name="Path 2503" d="M361.015,95.886s-.2.44-.59,1.182c-.361.681-.886,1.62-1.565,2.7v0a41.855,41.855,0,0,1-3.217,4.436l0,0a29.208,29.208,0,0,1-6.018,5.521,17.836,17.836,0,0,1-8.519,3.1c-8.117.647-14.671-10.785-18.351-19.125-.105-.236-.2-.466-.3-.7-1.3-3.007-2.2-5.537-2.637-6.832-.2-.6-.3-.935-.3-.935L340.924,76.4l4.52-1.87c2.676.134,5.189,2.237,7.384,5.073.167.216.335.44.5.667.085.114.167.23.245.344q.364.516.719,1.056c.131.2.262.4.39.606.384.611.754,1.235,1.113,1.863a68.891,68.891,0,0,1,3.492,7.224C360.392,94,361.015,95.886,361.015,95.886Z" transform="translate(-319.51 -74.528)" fill="#eab287"/>
      </g>
      <g id="Group_5143" data-name="Group 5143" transform="translate(32.247 6.817)">
        <g id="Group_5142" data-name="Group 5142">
          <path id="Path_2504" data-name="Path 2504" d="M344.086,84.131s.882-5.428,4.853-4.236c4.377,1.313,6.636,11.22.012,13.826Z" transform="translate(-344.086 -79.724)" fill="#eab287"/>
        </g>
      </g>
      <g id="Group_5144" data-name="Group 5144">
        <path id="Path_2505" data-name="Path 2505" d="M351.664,87.316c1.207,3.667.653,9.4.653,9.4a72.318,72.318,0,0,0-5.346-9.969.568.568,0,0,1-.039-.059.317.317,0,0,1-.033-.046,22.505,22.505,0,0,1-2.1-3.887c-17.826,6.99-23.806,6.173-24.989,3.426-.2-.6-.306-.932-.306-.932l25.938-10.719c3.293.164,6.341,3.311,8.847,7.14C351.989,82.776,351.819,85.564,351.664,87.316Z" transform="translate(-319.507 -74.528)" fill="#1d2333"/>
      </g>
    </g>
    <g id="Group_5148" data-name="Group 5148" transform="translate(45.948 65.388)">
      <g id="Group_5147" data-name="Group 5147">
        <g id="Group_5146" data-name="Group 5146">
          <path id="Path_2506" data-name="Path 2506" d="M325.028,132.8s15.252,12.716,46,16.4l.005-.012v0c4.869-5.432,10.282-18.167,13.889-28.748a19.439,19.439,0,0,0-3.325-18.512,14.911,14.911,0,0,0-3.546,5.22c-1.114,2.312-2.224,5.037-3.489,7.7-3.839,8.069-6.859,15.525-8.713,20.35h0a70.2,70.2,0,0,0-17.833-4.339,111.24,111.24,0,0,1-20.06-4.466Z" transform="translate(-325.028 -101.917)" fill="#225b61"/>
        </g>
      </g>
    </g>
    <path id="Path_2507" data-name="Path 2507" d="M332.147,122.123s-8.193-7.093-12.6-6.525-7.673,4.55-7.957,7.678,3.735,2.733,7.108,1.969,10.522,3.292,10.522,3.292A12.576,12.576,0,0,0,332.147,122.123Z" transform="translate(-283.276 -32.271)" fill="#eab287"/>
    <g id="Group_5150" data-name="Group 5150" transform="translate(0 69.974)">
      <g id="Group_5149" data-name="Group 5149">
        <path id="Path_2508" data-name="Path 2508" d="M290.28,110.446l15.8,38.7a3.653,3.653,0,0,0,3.382,2.272h23.608a3.651,3.651,0,0,0,3.384-5.033l-15.79-38.7a3.653,3.653,0,0,0-3.382-2.272H293.669A3.656,3.656,0,0,0,290.28,110.446Z" transform="translate(-290.007 -105.413)" fill="#e6e6e6"/>
        <path id="Path_2509" data-name="Path 2509" d="M290.28,110.446l15.8,38.7a3.653,3.653,0,0,0,3.382,2.272h19.209a3.651,3.651,0,0,0,3.384-5.033l-15.79-38.7a3.653,3.653,0,0,0-3.382-2.272H293.669A3.656,3.656,0,0,0,290.28,110.446Z" transform="translate(-290.007 -105.413)" fill="#fff"/>
        <path id="Path_2510" data-name="Path 2510" d="M302.127,124.839a6.244,6.244,0,0,0,5.325,3.848c2.125,0,3.187-1.723,2.371-3.848a6.244,6.244,0,0,0-5.324-3.849C302.374,120.99,301.311,122.714,302.127,124.839Z" transform="translate(-286.311 -100.553)" fill="#2d3e50" opacity="0.5"/>
      </g>
      <path id="Path_2511" data-name="Path 2511" d="M293.457,121.978s-1.77-3.964.109-5.024l1.6,3.915s3.471-3.137,5.883-1.609,6.3,9.866,5.08,12.1-7.948,4.2-10.349,1.418S292.571,124.52,293.457,121.978Z" transform="translate(-289.166 -101.812)" fill="#eab287"/>
    </g>
  </g>
  <g id="Group_5159" data-name="Group 5159" transform="translate(488.228 323.5)">
    <ellipse id="Ellipse_626" data-name="Ellipse 626" cx="47.079" cy="11.706" rx="47.079" ry="11.706" transform="translate(0 140.689)" fill="#b7b7b7"/>
    <g id="Group_5158" data-name="Group 5158">
      <path id="Path_2512" data-name="Path 2512" d="M380.367,323.389s24.945-2.744,44.044-2.744,50.115,2.744,50.115,2.744a113.687,113.687,0,0,1-94.159,0Z" transform="translate(-380.367 -278.393)" fill="#225b61" opacity="0.667"/>
      <g id="Group_5153" data-name="Group 5153" transform="translate(11.133)">
        <g id="Group_5152" data-name="Group 5152">
          <rect id="Rectangle_3105" data-name="Rectangle 3105" width="14.59" height="109.996" transform="translate(0.001 16.286) rotate(-4.23)" fill="#666"/>
          <path id="Path_2513" data-name="Path 2513" d="M405.548,295.515,391,296.591l4.025-10.733,2.086-5.555,2.88,5.188Z" transform="translate(-390.997 -280.303)" fill="#eab287"/>
          <rect id="Rectangle_3106" data-name="Rectangle 3106" width="14.59" height="7.992" transform="translate(7.524 118.013) rotate(-4.23)" fill="#2d3e50"/>
          <path id="Rectangle_3107" data-name="Rectangle 3107" d="M0,0H14.59a0,0,0,0,1,0,0V5.17a1.2,1.2,0,0,1-1.2,1.2H1.2A1.2,1.2,0,0,1,0,5.17V0A0,0,0,0,1,0,0Z" transform="translate(8.113 125.983) rotate(-4.228)" fill="#dc4131"/>
          <path id="Path_2514" data-name="Path 2514" d="M399.806,285.491l-4.966.367,2.086-5.555Z" transform="translate(-390.815 -280.303)" fill="#2d3e50"/>
          <rect id="Rectangle_3108" data-name="Rectangle 3108" width="14.59" height="5.731" transform="translate(7.101 112.297) rotate(-4.23)" fill="#ed9b06"/>
          <path id="Path_2515" data-name="Path 2515" d="M394.833,300.812l6.008,81.235a1.114,1.114,0,0,0,1.193,1.03h0a1.113,1.113,0,0,0,1.03-1.193l-6.008-81.236a1.115,1.115,0,0,0-1.194-1.029h0A1.113,1.113,0,0,0,394.833,300.812Z" transform="translate(-390.815 -279.389)" fill="#f4f4f4"/>
          <path id="Path_2516" data-name="Path 2516" d="M400.267,300.405l6.008,81.236a1.113,1.113,0,0,0,1.193,1.029h0a1.114,1.114,0,0,0,1.03-1.193l-6.008-81.235a1.116,1.116,0,0,0-1.194-1.03h0A1.113,1.113,0,0,0,400.267,300.405Z" transform="translate(-390.558 -279.408)" fill="#f4f4f4"/>
        </g>
      </g>
      <g id="Group_5155" data-name="Group 5155" transform="translate(35.596 1.283)">
        <g id="Group_5154" data-name="Group 5154">
          <rect id="Rectangle_3109" data-name="Rectangle 3109" width="14.59" height="109.996" transform="matrix(-0.997, -0.073, 0.073, -0.997, 14.552, 117.119)" fill="#666"/>
          <path id="Path_2517" data-name="Path 2517" d="M414.354,392.339l14.552,1.06-5.549,10.03-2.874,5.191-2.092-5.552Z" transform="translate(-414.354 -276.282)" fill="#eab287"/>
          <rect id="Rectangle_3110" data-name="Rectangle 3110" width="14.59" height="7.992" transform="matrix(-0.997, -0.073, 0.073, -0.997, 21.96, 15.384)" fill="#2d3e50"/>
          <path id="Rectangle_3111" data-name="Rectangle 3111" d="M0,0H14.59a0,0,0,0,1,0,0V5.17a1.2,1.2,0,0,1-1.2,1.2H1.2A1.2,1.2,0,0,1,0,5.169V0A0,0,0,0,1,0,0Z" transform="translate(22.54 7.413) rotate(-175.834)" fill="#b7b7b7"/>
          <path id="Path_2518" data-name="Path 2518" d="M418.209,402.583l4.966.362-2.874,5.191Z" transform="translate(-414.171 -275.797)" fill="#2d3e50"/>
          <rect id="Rectangle_3112" data-name="Rectangle 3112" width="5.731" height="14.59" transform="matrix(0.073, -0.997, 0.997, 0.073, 6.992, 20.04)" fill="#ddd"/>
          <path id="Path_2519" data-name="Path 2519" d="M425.271,391.666l5.915-81.242a1.113,1.113,0,0,0-1.031-1.192h0a1.113,1.113,0,0,0-1.192,1.031L423.047,391.5a1.116,1.116,0,0,0,1.032,1.193h0A1.114,1.114,0,0,0,425.271,391.666Z" transform="translate(-413.943 -280.216)" fill="#f4f4f4"/>
          <path id="Path_2520" data-name="Path 2520" d="M419.836,391.275l5.915-81.242a1.114,1.114,0,0,0-1.031-1.192h0a1.115,1.115,0,0,0-1.193,1.031l-5.915,81.241a1.116,1.116,0,0,0,1.031,1.193h0A1.116,1.116,0,0,0,419.836,391.275Z" transform="translate(-414.2 -280.235)" fill="#f4f4f4"/>
        </g>
      </g>
      <g id="Group_5157" data-name="Group 5157" transform="translate(55.987 7.523)">
        <g id="Group_5156" data-name="Group 5156">
          <rect id="Rectangle_3113" data-name="Rectangle 3113" width="14.59" height="109.996" transform="translate(14.255 116.802) rotate(-167.692)" fill="#666"/>
          <path id="Path_2521" data-name="Path 2521" d="M433.824,396.037l14.255,3.11-6.914,9.143-3.581,4.731-1.284-5.793Z" transform="translate(-433.823 -282.347)" fill="#eab287"/>
          <rect id="Rectangle_3114" data-name="Rectangle 3114" width="14.59" height="7.992" transform="translate(35.999 17.142) rotate(-167.692)" fill="#2d3e50"/>
          <path id="Rectangle_3115" data-name="Rectangle 3115" d="M0,0H14.59a0,0,0,0,1,0,0V5.17a1.2,1.2,0,0,1-1.2,1.2H1.2A1.2,1.2,0,0,1,0,5.17V0A0,0,0,0,1,0,0Z" transform="translate(37.703 9.334) rotate(-167.69)" fill="#b7b7b7"/>
          <path id="Path_2522" data-name="Path 2522" d="M436.188,406.723l4.865,1.062-3.581,4.731Z" transform="translate(-433.711 -281.841)" fill="#2d3e50"/>
          <path id="Path_2550" data-name="Path 2550" d="M0,0H5.731V14.59H0Z" transform="translate(20.523 19.631) rotate(-77.692)" fill="#ddd"/>
          <path id="Path_2523" data-name="Path 2523" d="M445.253,396.873l17.365-79.584a1.116,1.116,0,0,0-.851-1.327h0a1.114,1.114,0,0,0-1.326.852L443.075,396.4a1.115,1.115,0,0,0,.852,1.326h0A1.114,1.114,0,0,0,445.253,396.873Z" transform="translate(-433.386 -286.139)" fill="#f4f4f4"/>
          <path id="Path_2524" data-name="Path 2524" d="M439.928,395.717l17.365-79.585a1.114,1.114,0,0,0-.851-1.326h0a1.113,1.113,0,0,0-1.326.85L437.75,395.24a1.115,1.115,0,0,0,.852,1.327h0A1.115,1.115,0,0,0,439.928,395.717Z" transform="translate(-433.639 -286.194)" fill="#f4f4f4"/>
        </g>
      </g>
      <path id="Path_2525" data-name="Path 2525" d="M474.525,323.265l0,.018L460.756,428.328q-33.309,17.119-66.618,0l-1.553-11.856v0l-12.216-93.2Q427.448,340.7,474.525,323.265Z" transform="translate(-380.367 -278.269)" fill="#ffca3a"/>
      <path id="Path_2526" data-name="Path 2526" d="M473.969,323.282,460.2,428.327q-33.309,17.119-66.618,0l-1.553-11.856v0s23.89,13.879,43.771,2.408C457.53,406.337,473.7,324.584,473.969,323.282Z" transform="translate(-379.815 -278.268)" fill="#317b85" opacity="0.859"/>
    </g>
  </g>
</svg>
