<svg xmlns="http://www.w3.org/2000/svg" width="30.18" height="30.18" viewBox="0 0 30.18 30.18">
  <path id="Path_2927" data-name="Path 2927" d="M15.49.4A15.09,15.09,0,1,0,30.58,15.489,15.09,15.09,0,0,0,15.49.4Zm-.237,23.891h-.08a2.107,2.107,0,0,1,.05-4.213l.072,0a2.1,2.1,0,1,1-.042,4.21Zm5.173-10.266A9.614,9.614,0,0,1,18.7,15.57l-.883.608a2.4,2.4,0,0,0-.885,1.081,2.209,2.209,0,0,0-.137.905v.141H13.423l.009-.286a3.7,3.7,0,0,1,.556-2.432A14.421,14.421,0,0,1,16.5,13.566a2.594,2.594,0,0,0,.6-.608,2.145,2.145,0,0,0,.509-1.247,2.432,2.432,0,0,0-.461-1.44,1.922,1.922,0,0,0-1.668-.626,1.815,1.815,0,0,0-1.685.78,3.1,3.1,0,0,0-.511,1.677v.145H9.809l.006-.151a5.285,5.285,0,0,1,2.256-4.554,5.968,5.968,0,0,1,3.271-.855A7.06,7.06,0,0,1,19.558,7.9a4.207,4.207,0,0,1,1.707,3.633,4.169,4.169,0,0,1-.839,2.491Z" transform="translate(-0.4 -0.4)" fill="#f7c700"/>
</svg>
