<svg xmlns="http://www.w3.org/2000/svg" width="18" height="19.77" viewBox="0 0 18 19.77">
  <g id="Performance_01" data-name="Performance 01" transform="translate(0.5 0.5)">
    <path id="Performance_01-2" data-name="Performance 01" d="M21,9.5v12a.5.5,0,0,1-.5.5h-3a.5.5,0,0,1-.5-.5V9.5a.5.5,0,0,1,.5-.5h3A.5.5,0,0,1,21,9.5ZM14,13H11a.5.5,0,0,0-.5.5v8a.5.5,0,0,0,.5.5h3a.5.5,0,0,0,.5-.5v-8A.5.5,0,0,0,14,13ZM7.5,17h-3a.5.5,0,0,0-.5.5v4a.5.5,0,0,0,.5.5h3a.5.5,0,0,0,.5-.5v-4A.5.5,0,0,0,7.5,17ZM17.25,6.46l-.25-3h0a.3.3,0,0,0,0-.1V3.31h0l-.07-.08h-.29l-2.95.53a.5.5,0,0,0-.41.58.51.51,0,0,0,.5.41h.08l1.73-.31A12.45,12.45,0,0,1,6.5,9a.5.5,0,0,0,0,1,13.15,13.15,0,0,0,9.62-5.13l.14,1.67a.5.5,0,0,0,.49.46h.05A.5.5,0,0,0,17.25,6.46Z" transform="translate(-4 -3.23)" fill="#ffca3a" stroke="#111" stroke-width="1"/>
  </g>
</svg>
